<svg xmlns="http://www.w3.org/2000/svg" viewBox="0 0 326.18 414.36"><defs><style>.cls-1{fill:#063;}.cls-2{fill:#e30613;}.cls-3{fill:#432918;}</style></defs><g id="Layer_2" data-name="Layer 2"><g id="Layer_1-2" data-name="Layer 1"><path class="cls-1" d="M193.16,82.26c-.71-.77.88-3.93,4.09-10.22,5-9.79,7.49-14.69,11-18.63,7.92-9,18.86-13.79,20.17-12.26.72.85-1.9,3.21-4.6,9.7a59.16,59.16,0,0,0-3.06,10.47C217.14,74.86,195.8,85.1,193.16,82.26Z"/><path class="cls-1" d="M179.12,118.51c4.79-13.53,3.68-12.34,4.85-14.3,3-5,7.29-7.52,15.83-12.51,6.24-3.64,7.17-3,7.41-2.8.73.78-.81,3.18-2.56,6.38-4.49,8.21-3.83,9.71-6.38,14-6.13,10.4-18.57,16.39-20.43,14.55C177.34,123.38,177.73,122.43,179.12,118.51Z"/><path class="cls-1" d="M113,105.24c-.67,1,.32,2.21,2.05,6.63,2.86,7.33,2,8.72,3.83,12.77,3.13,7,9.16,10.64,11,11.74,4.55,2.76,14.65,7.18,18.39,3.32,3.91-4-1.58-14.68-2.3-16.08-4.28-8.29-11.26-12.22-15.06-14.3C124.26,105.71,114.7,102.7,113,105.24Z"/><path class="cls-1" d="M142.35,66.43s.49-9.69,7.41-16.34c.3-.29.86-.67,2.2-1.87.38-.33.46-.41.61-.43,1.05-.14,2.22,3.06,3.06,5.11,2.66,6.47,3.73,5.65,5.11,10,.88,2.75,2,6.37,1,10.47-.56,2.25-1.3,2.74-5.87,10.72-1.53,2.67-2.29,4-2.46,4.46-.26.73-.32,1.06-.61,1.16-1.27.47-4.4-4.51-6.12-7.91C144.25,76.94,142.05,72.59,142.35,66.43Z"/><path class="cls-1" d="M178.1,36.81c-1-1.38.65-4.18,2.55-7.4A24.93,24.93,0,0,1,188.31,21c8.11-5.41,18.69-4.75,19.15-3.06.21.77-1.81,1.33-4.85,4.34-3.31,3.28-3.94,5.61-5.62,7.91C191.82,37.26,180,39.43,178.1,36.81Z"/><path class="cls-1" d="M136.74,30.68c-.44-2,6.64-5,7.4-5.36,4.59-2,9.17-4,15.07-2.81,0,0,3.55.7,10.95,5.85l0,0c.3.42-3.24,3.62-5.36,5.11-.63.45-7.81,5.35-15.06,3.32-3.69-1-3.9-2.88-9.7-4.6C138.2,31.66,136.91,31.47,136.74,30.68Z"/><path class="cls-1" d="M116.06,44.72c.45-5.28,3-11.36,5.1-11.23.73,0,1.06.8,2,2.3,3.53,5.38,5.33,5,7.4,8.68a16.28,16.28,0,0,1,2,9.45c-.18,1.75-1.4,4.23-3.83,9.19-.65,1.34-.94,1.83-1.53,2-2.39.84-6.44-4.28-8.42-7.91A22,22,0,0,1,116.06,44.72Z"/><path class="cls-1" d="M116.76,84.45C114.66,79.58,114,73,116,72.13c.66-.3,1.31.21,2.89,1.06,5.65,3.08,7,1.87,10.62,4.16a16.22,16.22,0,0,1,6.27,7.36c.66,1.63.76,4.39,1,9.91.05,1.48,0,2.06-.39,2.52-1.71,1.87-7.7-.73-11.17-3A22.06,22.06,0,0,1,116.76,84.45Z"/><path class="cls-1" d="M82.7,80.92c.57-6.57,3.8-14.14,6.46-14,.92,0,1.34,1,2.59,2.86,4.47,6.7,6.74,6.2,9.37,10.8a20,20,0,0,1,2.58,11.76c-.24,2.19-1.77,5.27-4.85,11.44-.82,1.66-1.18,2.28-1.93,2.54-3,1-8.16-5.33-10.66-9.85A27,27,0,0,1,82.7,80.92Z"/><path class="cls-1" d="M75.36,32.67C72.59,25.46,72,15.92,74.7,14.81c.94-.38,1.84.41,4,1.78,7.86,4.92,9.88,3.3,14.83,6.9a24.48,24.48,0,0,1,8.55,11.17c.88,2.42.92,6.41,1,14.39,0,2.16,0,3-.64,3.62C100,55.22,91.62,51,86.82,47.39A33.18,33.18,0,0,1,75.36,32.67Z"/><path class="cls-1" d="M50.79,60.35c.54-6.78,3.64-14.59,6.19-14.42.87,0,1.28,1,2.47,3,4.29,6.91,6.47,6.39,9,11.14a21.93,21.93,0,0,1,2.48,12.13c-.23,2.26-1.7,5.44-4.65,11.81-.79,1.71-1.14,2.35-1.85,2.62-2.91,1.07-7.82-5.5-10.22-10.16A29.6,29.6,0,0,1,50.79,60.35Z"/><path class="cls-1" d="M12.3,95.54C8.89,90.15,7.39,82,10,80.18c.89-.64,1.85-.25,4.13.24,8.2,1.73,10-.34,15.25,1.19a16.39,16.39,0,0,1,9.47,7c1.09,1.83,1.49,5.3,2.31,12.24.22,1.87.25,2.61-.29,3.36-2.22,3-10.84,2-15.9.49C22.67,104,16.32,101.9,12.3,95.54Z"/><path class="cls-1" d="M46,131.36c-5.09-1.48-10.55-5.18-10-7.22.19-.7,1-.88,2.66-1.55,6-2.41,5.93-4.25,10-5.55a16.3,16.3,0,0,1,9.67-.15c1.68.53,3.87,2.21,8.26,5.57,1.18.9,1.61,1.28,1.7,1.9.35,2.51-5.47,5.48-9.42,6.71A22,22,0,0,1,46,131.36Z"/><path class="cls-1" d="M65.77,154c-4.4-1.27-9.12-4.42-8.66-6.14.16-.59.85-.74,2.28-1.29,5.14-2,5.1-3.57,8.58-4.65a14.23,14.23,0,0,1,8.33-.09c1.45.45,3.35,1.88,7.14,4.73,1,.77,1.4,1.09,1.47,1.61.31,2.12-4.69,4.61-8.09,5.63A19.41,19.41,0,0,1,65.77,154Z"/><path class="cls-1" d="M10.05,155.1C5,153.62-.5,149.92,0,147.89c.18-.7,1-.88,2.65-1.55,6-2.41,5.93-4.25,10-5.55a16.27,16.27,0,0,1,9.66-.15c1.69.53,3.88,2.21,8.26,5.56,1.18.91,1.62,1.29,1.7,1.91.35,2.51-5.46,5.48-9.41,6.7A22,22,0,0,1,10.05,155.1Z"/><path class="cls-1" d="M10.83,189.44c-5.36-2.51-10.72-7.61-9.75-9.84.34-.76,1.26-.84,3.22-1.32,7-1.76,7.33-3.86,12-4.68A17.78,17.78,0,0,1,27,175c1.77.88,3.89,3.15,8.12,7.68,1.14,1.22,1.55,1.72,1.53,2.44-.08,2.91-7,5.33-11.64,6.07A23.93,23.93,0,0,1,10.83,189.44Z"/><path class="cls-1" d="M43.37,169.81c-4.66-1.31-9.7-4.47-9.24-6.15.15-.57.88-.71,2.39-1.23,5.39-1.89,5.32-3.42,9-4.42a16.13,16.13,0,0,1,8.8,0c1.54.47,3.56,1.9,7.61,4.75,1.1.77,1.5,1.09,1.59,1.61.36,2.08-4.89,4.43-8.46,5.38A21.85,21.85,0,0,1,43.37,169.81Z"/><path class="cls-1" d="M73.89,181.49c-3.65-1.1-7.52-3.93-7.11-5.54.15-.56.73-.71,1.94-1.26,4.33-2,4.33-3.43,7.25-4.51a10.77,10.77,0,0,1,7-.25c1.21.39,2.76,1.68,5.87,4.26.84.7,1.14,1,1.2,1.48.21,2-4,4.39-6.88,5.41A14.66,14.66,0,0,1,73.89,181.49Z"/><path class="cls-1" d="M96,169.82c-5.09-1.48-10.55-5.18-10-7.22.18-.7,1-.88,2.65-1.55,6-2.4,5.94-4.25,10-5.55a16.24,16.24,0,0,1,9.67-.14c1.68.53,3.87,2.2,8.25,5.56,1.19.91,1.62,1.28,1.71,1.9.34,2.52-5.47,5.48-9.42,6.71A22,22,0,0,1,96,169.82Z"/><path class="cls-1" d="M133.4,186.48s7.24-6.46,16.84-6.2c.41,0,1.07.14,2.87.26.5,0,.61,0,.73.12.84.66-.61,3.73-1.48,5.77-2.75,6.44-1.42,6.63-3.51,10.63-1.33,2.55-3.09,5.92-6.74,8.07-2,1.18-2.86,1-11.76,3.35-3,.79-4.45,1.18-4.89,1.38-.71.32-1,.51-1.26.38-1.22-.57.13-6.3,1.34-9.92C127.25,195.21,128.8,190.58,133.4,186.48Z"/><path class="cls-1" d="M52.56,194.32s9.7.07,16.64,6.69c.31.29.71.83,2,2.12.35.36.44.44.46.59.18,1-3,2.35-5,3.28-6.35,2.94-5.49,4-9.72,5.54-2.71,1-6.27,2.32-10.42,1.47-2.27-.46-2.79-1.18-11-5.4-2.73-1.41-4.09-2.11-4.55-2.26-.74-.24-1.07-.28-1.19-.56-.53-1.25,4.32-4.59,7.64-6.46C42.14,196.68,46.39,194.28,52.56,194.32Z"/><path class="cls-1" d="M96.75,202.58s6.58-4.29,14.35-2.78c.34.07.86.26,2.31.6.4.1.49.11.58.21.61.65-.9,3-1.82,4.51-2.92,4.9-1.86,5.23-4,8.22-1.36,1.9-3.15,4.42-6.34,5.68-1.75.7-2.43.43-9.92,1.14-2.49.24-3.74.36-4.12.46-.61.17-.86.29-1.07.15-.93-.64.78-5.14,2.15-7.94C90.82,208.88,92.57,205.31,96.75,202.58Z"/><path class="cls-1" d="M49.54,223.34s9.42-6.62,20.61-5.1c.48.06,1.24.3,3.32.66.58.1.72.12.84.24.88.87-1.27,4.28-2.59,6.55-4.16,7.17-2.63,7.55-5.67,12-1.93,2.81-4.49,6.52-9.07,8.57-2.51,1.12-3.5.8-14.25,2.42-3.59.54-5.39.81-5.93,1-.87.28-1.23.47-1.53.28-1.35-.82,1.08-7.34,3-11.41C41.05,232.75,43.54,227.55,49.54,223.34Z"/><path class="cls-1" d="M98.05,229.65s8.19-5.19,17.61-3.38c.41.08,1,.31,2.8.72.49.12.6.14.7.25.72.78-1.21,3.58-2.4,5.45-3.76,5.91-2.48,6.3-5.19,9.91-1.73,2.31-4,5.34-8,6.87-2.16.84-3,.52-12.15,1.39-3.06.29-4.59.44-5,.57-.75.2-1.06.34-1.31.17C84,250.84,86.25,245.4,88,242,90.56,237.26,92.83,233,98.05,229.65Z"/><path class="cls-1" d="M134.12,218.39a16.4,16.4,0,0,1,10.52-3.73c.26,0,.67.1,1.8.19.32,0,.39,0,.47.08.53.42-.36,2.34-.88,3.61-1.67,4-.83,4.15-2.11,6.65a11.05,11.05,0,0,1-4.15,5c-1.24.72-1.79.59-7.35,2-1.86.47-2.79.7-3.07.82-.44.2-.61.31-.78.23-.78-.37,0-4,.75-6.22C130.34,223.82,131.27,220.93,134.12,218.39Z"/><rect class="cls-2" x="255.49" y="286.51" width="1" height="1.07" transform="translate(332.79 -89.82) rotate(53.25)"/><rect class="cls-2" x="254.21" y="287.47" width="1" height="1.07" transform="translate(333.04 -88.41) rotate(53.25)"/><rect class="cls-2" x="255.08" y="288.64" width="1" height="1.07" transform="translate(334.33 -88.64) rotate(53.25)"/><rect class="cls-2" x="253.13" y="288.28" width="1" height="1.07" transform="translate(333.25 -87.22) rotate(53.25)"/><rect class="cls-2" x="254" y="289.45" width="1" height="1.07" transform="translate(334.55 -87.45) rotate(53.25)"/><rect class="cls-2" x="254.81" y="290.53" width="1" height="1.07" transform="translate(335.74 -87.66) rotate(53.25)"/><rect class="cls-2" x="251.84" y="289.24" width="1" height="1.07" transform="translate(333.51 -85.8) rotate(53.25)"/><rect class="cls-2" x="252.72" y="290.41" width="1" height="1.07" transform="translate(334.8 -86.03) rotate(53.25)"/><rect class="cls-2" x="253.52" y="291.49" width="1" height="1.07" transform="translate(335.99 -86.25) rotate(53.25)"/><rect class="cls-2" x="254.43" y="292.7" width="1" height="1.07" transform="translate(337.32 -86.48) rotate(53.25)"/><rect class="cls-2" x="251.58" y="291.26" width="1" height="1.07" transform="translate(335.02 -84.78) rotate(53.25)"/><rect class="cls-2" x="252.39" y="292.34" width="1" height="1.07" transform="translate(336.21 -84.99) rotate(53.25)"/><rect class="cls-2" x="253.29" y="293.55" width="1" height="1.07" transform="translate(337.54 -85.23) rotate(53.25)"/><rect class="cls-2" x="251.25" y="293.19" width="1" height="1.07" transform="translate(336.44 -83.74) rotate(53.25)"/><rect class="cls-2" x="252.15" y="294.4" width="1" height="1.07" transform="translate(337.77 -83.98) rotate(53.25)"/><rect class="cls-2" x="250.83" y="295.38" width="1" height="1.07" transform="translate(338.03 -82.53) rotate(53.25)"/><rect class="cls-2" x="262.21" y="295.58" width="1.01" height="1.07" transform="translate(182.68 683.79) rotate(-126.75)"/><rect class="cls-2" x="260.93" y="296.54" width="1.01" height="1.07" transform="translate(179.86 684.3) rotate(-126.75)"/><rect class="cls-2" x="260.05" y="295.35" width="1.01" height="1.07" transform="translate(179.4 681.7) rotate(-126.75)"/><rect class="cls-2" x="259.85" y="297.34" width="1.01" height="1.07" transform="translate(177.5 684.72) rotate(-126.75)"/><rect class="cls-2" x="258.97" y="296.16" width="1.01" height="1.07" transform="translate(177.03 682.12) rotate(-126.75)"/><rect class="cls-2" x="258.15" y="295.07" width="1.01" height="1.07" transform="translate(176.6 679.72) rotate(-126.75)"/><rect class="cls-2" x="258.57" y="298.3" width="1.01" height="1.07" transform="translate(174.67 685.23) rotate(-126.75)"/><rect class="cls-2" x="257.68" y="297.12" width="1.01" height="1.07" transform="translate(174.2 682.62) rotate(-126.75)"/><rect class="cls-2" x="256.87" y="296.03" width="1.01" height="1.07" transform="translate(173.77 680.23) rotate(-126.75)"/><rect class="cls-2" x="255.96" y="294.81" width="1.01" height="1.07" transform="translate(173.3 677.55) rotate(-126.75)"/><rect class="cls-2" x="256.54" y="297.97" width="1.01" height="1.07" transform="translate(171.7 683.07) rotate(-126.75)"/><rect class="cls-2" x="255.73" y="296.88" width="1.01" height="1.07" transform="translate(171.27 680.67) rotate(-126.75)"/><rect class="cls-2" x="254.82" y="295.66" width="1.01" height="1.07" transform="translate(170.8 677.99) rotate(-126.75)"/><rect class="cls-2" x="254.59" y="297.73" width="1.01" height="1.07" transform="translate(168.77 681.12) rotate(-126.75)"/><rect class="cls-2" x="253.68" y="296.51" width="1.01" height="1.07" transform="translate(168.3 678.44) rotate(-126.75)"/><rect class="cls-2" x="252.36" y="297.49" width="1.01" height="1.07" transform="translate(165.4 678.96) rotate(-126.75)"/><rect class="cls-2" x="252.03" y="299.64" width="1.07" height="1" transform="translate(-129.39 210.8) rotate(-36.75)"/><rect class="cls-2" x="252.93" y="300.84" width="1.07" height="1" transform="translate(-129.93 211.57) rotate(-36.75)"/><rect class="cls-2" x="254.18" y="299.91" width="1.07" height="1" transform="translate(-129.13 212.14) rotate(-36.75)"/><rect class="cls-2" x="253.69" y="301.86" width="1.07" height="1" transform="translate(-130.39 212.23) rotate(-36.75)"/><rect class="cls-2" x="254.94" y="300.92" width="1.07" height="1" transform="translate(-129.58 212.79) rotate(-36.75)"/><rect class="cls-2" x="256.09" y="300.06" width="1.07" height="1" transform="translate(-128.84 213.31) rotate(-36.75)"/><rect class="cls-2" x="254.59" y="303.06" width="1.07" height="1" transform="translate(-130.93 213.01) rotate(-36.75)"/><rect class="cls-2" x="255.84" y="302.13" width="1.07" height="1" transform="translate(-130.13 213.57) rotate(-36.75)"/><rect class="cls-2" x="256.99" y="301.27" width="1.07" height="1" transform="translate(-129.38 214.09) rotate(-36.75)"/><rect class="cls-2" x="258.28" y="300.31" width="1.07" height="1" transform="translate(-128.55 214.67) rotate(-36.75)"/><rect class="cls-2" x="256.64" y="303.2" width="1.07" height="1" transform="translate(-130.61 214.26) rotate(-36.75)"/><rect class="cls-2" x="257.79" y="302.34" width="1.07" height="1" transform="translate(-129.86 214.78) rotate(-36.75)"/><rect class="cls-2" x="259.08" y="301.37" width="1.07" height="1" transform="translate(-129.03 215.36) rotate(-36.75)"/><rect class="cls-2" x="258.59" y="303.4" width="1.07" height="1" transform="translate(-130.34 215.47) rotate(-36.75)"/><rect class="cls-2" x="259.87" y="302.44" width="1.07" height="1" transform="translate(-129.51 216.05) rotate(-36.75)"/><rect class="cls-2" x="260.8" y="303.68" width="1.07" height="1" transform="translate(-130.07 216.85) rotate(-36.75)"/><rect class="cls-2" x="237.86" y="292.83" width="1.07" height="1" transform="translate(-128.13 200.97) rotate(-36.75)"/><rect class="cls-2" x="238.76" y="294.03" width="1.07" height="1" transform="translate(-128.67 201.74) rotate(-36.75)"/><rect class="cls-2" x="240.01" y="293.1" width="1.07" height="1" transform="translate(-127.87 202.3) rotate(-36.75)"/><rect class="cls-2" x="239.52" y="295.04" width="1.07" height="1" transform="translate(-129.13 202.4) rotate(-36.75)"/><rect class="cls-2" x="240.77" y="294.11" width="1.07" height="1" transform="translate(-128.32 202.96) rotate(-36.75)"/><rect class="cls-2" x="241.92" y="293.25" width="1.07" height="1" transform="translate(-127.58 203.48) rotate(-36.75)"/><rect class="cls-2" x="240.42" y="296.25" width="1.07" height="1" transform="translate(-129.67 203.18) rotate(-36.75)"/><rect class="cls-2" x="241.67" y="295.32" width="1.07" height="1" transform="translate(-128.86 203.74) rotate(-36.75)"/><rect class="cls-2" x="242.82" y="294.45" width="1.07" height="1" transform="translate(-128.12 204.26) rotate(-36.75)"/><rect class="cls-2" x="244.11" y="293.49" width="1.07" height="1" transform="translate(-127.29 204.84) rotate(-36.75)"/><rect class="cls-2" x="242.47" y="296.38" width="1.07" height="1" transform="translate(-129.34 204.43) rotate(-36.75)"/><rect class="cls-2" x="243.62" y="295.52" width="1.07" height="1" transform="translate(-128.6 204.95) rotate(-36.75)"/><rect class="cls-2" x="244.91" y="294.56" width="1.07" height="1" transform="translate(-127.77 205.53) rotate(-36.75)"/><rect class="cls-2" x="244.42" y="296.59" width="1.07" height="1" transform="translate(-129.08 205.64) rotate(-36.75)"/><rect class="cls-2" x="245.71" y="295.63" width="1.07" height="1" transform="translate(-128.25 206.21) rotate(-36.75)"/><rect class="cls-2" x="246.63" y="296.86" width="1.07" height="1" transform="translate(-128.81 207.01) rotate(-36.75)"/><rect class="cls-2" x="248.76" y="295.04" width="1.07" height="0.98" transform="translate(-127.29 207.92) rotate(-36.75)"/><rect class="cls-2" x="247.87" y="293.86" width="1.07" height="0.98" transform="translate(-126.76 207.16) rotate(-36.75)"/><rect class="cls-2" x="249.13" y="292.92" width="1.07" height="0.98" transform="translate(-125.94 207.73) rotate(-36.75)"/><rect class="cls-2" x="247.13" y="292.87" width="1.07" height="0.98" transform="translate(-126.31 206.52) rotate(-36.75)"/><rect class="cls-2" x="248.39" y="291.93" width="1.07" height="0.98" transform="translate(-125.5 207.09) rotate(-36.75)"/><rect class="cls-2" x="249.55" y="291.06" width="1.07" height="0.98" transform="translate(-124.75 207.61) rotate(-36.75)"/><rect class="cls-2" x="246.25" y="291.68" width="1.07" height="0.98" transform="translate(-125.77 205.75) rotate(-36.75)"/><rect class="cls-2" x="247.5" y="290.74" width="1.07" height="0.98" transform="translate(-124.96 206.32) rotate(-36.75)"/><rect class="cls-2" x="248.66" y="289.88" width="1.07" height="0.98" transform="translate(-124.21 206.84) rotate(-36.75)"/><rect class="cls-2" x="249.96" y="288.91" width="1.07" height="0.98" transform="translate(-123.38 207.42) rotate(-36.75)"/><rect class="cls-2" x="246.72" y="289.7" width="1.07" height="0.98" transform="translate(-124.49 205.64) rotate(-36.75)"/><rect class="cls-2" x="247.88" y="288.83" width="1.07" height="0.98" transform="translate(-123.74 206.17) rotate(-36.75)"/><rect class="cls-2" x="249.18" y="287.86" width="1.07" height="0.98" transform="translate(-122.91 206.75) rotate(-36.75)"/><rect class="cls-2" x="247.1" y="287.78" width="1.07" height="0.98" transform="translate(-123.27 205.49) rotate(-36.75)"/><rect class="cls-2" x="248.39" y="286.81" width="1.07" height="0.98" transform="translate(-122.43 206.07) rotate(-36.75)"/><rect class="cls-2" x="247.49" y="285.6" width="1.07" height="0.98" transform="translate(-121.89 205.29) rotate(-36.75)"/><rect class="cls-2" x="251.31" y="310.9" width="1.07" height="1.02" transform="translate(-136.28 212.61) rotate(-36.75)"/><rect class="cls-2" x="250.4" y="309.68" width="1.07" height="1.02" transform="translate(-135.73 211.82) rotate(-36.75)"/><rect class="cls-2" x="251.65" y="308.74" width="1.07" height="1.02" transform="translate(-134.92 212.38) rotate(-36.75)"/><rect class="cls-2" x="249.63" y="308.64" width="1.07" height="1.02" transform="translate(-135.26 211.15) rotate(-36.75)"/><rect class="cls-2" x="250.88" y="307.71" width="1.07" height="1.02" transform="translate(-134.46 211.71) rotate(-36.75)"/><rect class="cls-2" x="252.03" y="306.85" width="1.07" height="1.02" transform="translate(-133.71 212.23) rotate(-36.75)"/><rect class="cls-2" x="248.7" y="307.41" width="1.07" height="1.02" transform="translate(-134.71 210.35) rotate(-36.75)"/><rect class="cls-2" x="249.95" y="306.47" width="1.07" height="1.02" transform="translate(-133.9 210.92) rotate(-36.75)"/><rect class="cls-2" x="251.11" y="305.61" width="1.07" height="1.02" transform="translate(-133.16 211.43) rotate(-36.75)"/><rect class="cls-2" x="252.39" y="304.65" width="1.07" height="1.02" transform="translate(-132.33 212.01) rotate(-36.75)"/><rect class="cls-2" x="249.14" y="305.38" width="1.07" height="1.02" transform="translate(-133.41 210.21) rotate(-36.75)"/><rect class="cls-2" x="250.29" y="304.52" width="1.07" height="1.02" transform="translate(-132.67 210.73) rotate(-36.75)"/><rect class="cls-2" x="251.58" y="303.56" width="1.07" height="1.02" transform="translate(-131.83 211.31) rotate(-36.75)"/><rect class="cls-2" x="249.48" y="303.43" width="1.07" height="1.02" transform="translate(-132.18 210.03) rotate(-36.75)"/><rect class="cls-2" x="250.77" y="302.47" width="1.07" height="1.02" transform="translate(-131.34 210.61) rotate(-36.75)"/><rect class="cls-2" x="249.82" y="301.21" width="1.07" height="1.02" transform="translate(-130.78 209.79) rotate(-36.75)"/><rect class="cls-2" x="247.73" y="300.95" width="1" height="1.07" transform="matrix(0.6, 0.8, -0.8, 0.6, 341.24, -77.81)"/><rect class="cls-2" x="246.45" y="301.9" width="1" height="1.07" transform="matrix(0.6, 0.8, -0.8, 0.6, 341.49, -76.4)"/><rect class="cls-2" x="247.33" y="303.08" width="1" height="1.07" transform="translate(342.78 -76.63) rotate(53.25)"/><rect class="cls-2" x="245.37" y="302.71" width="1" height="1.07" transform="translate(341.7 -75.21) rotate(53.25)"/><rect class="cls-2" x="246.25" y="303.88" width="1" height="1.07" transform="translate(343 -75.44) rotate(53.25)"/><rect class="cls-2" x="247.06" y="304.96" width="1" height="1.07" transform="translate(344.19 -75.65) rotate(53.25)"/><rect class="cls-2" x="244.08" y="303.67" width="1" height="1.07" transform="translate(341.96 -73.79) rotate(53.25)"/><rect class="cls-2" x="244.96" y="304.84" width="1" height="1.07" transform="translate(343.25 -74.02) rotate(53.25)"/><rect class="cls-2" x="245.77" y="305.93" width="1" height="1.07" transform="translate(344.44 -74.23) rotate(53.25)"/><rect class="cls-2" x="246.67" y="307.13" width="1" height="1.07" transform="translate(345.77 -74.47) rotate(53.25)"/><rect class="cls-2" x="243.82" y="305.69" width="1" height="1.07" transform="translate(343.47 -72.77) rotate(53.25)"/><rect class="cls-2" x="244.63" y="306.78" width="1" height="1.07" transform="translate(344.66 -72.98) rotate(53.25)"/><rect class="cls-2" x="245.53" y="307.98" width="1" height="1.07" transform="translate(345.99 -73.22) rotate(53.25)"/><rect class="cls-2" x="243.49" y="307.63" width="1" height="1.07" transform="translate(344.89 -71.73) rotate(53.25)"/><rect class="cls-2" x="244.4" y="308.83" width="1" height="1.07" transform="matrix(0.6, 0.8, -0.8, 0.6, 346.22, -71.97)"/><rect class="cls-2" x="243.08" y="309.82" width="1" height="1.07" transform="translate(346.48 -70.52) rotate(53.25)"/><rect class="cls-2" x="246.04" y="298.76" width="1.02" height="1.07" transform="translate(154.3 675.92) rotate(-126.75)"/><rect class="cls-2" x="244.76" y="299.72" width="1.02" height="1.07" transform="translate(151.48 676.43) rotate(-126.75)"/><rect class="cls-2" x="243.87" y="298.52" width="1.02" height="1.07" transform="translate(151.01 673.8) rotate(-126.75)"/><rect class="cls-2" x="243.69" y="300.52" width="1.02" height="1.07" transform="translate(149.11 676.85) rotate(-126.75)"/><rect class="cls-2" x="242.79" y="299.32" width="1.02" height="1.07" transform="translate(148.65 674.22) rotate(-126.75)"/><rect class="cls-2" x="241.97" y="298.22" width="1.02" height="1.07" transform="translate(148.21 671.8) rotate(-126.75)"/><rect class="cls-2" x="242.4" y="301.48" width="1.02" height="1.07" transform="translate(146.29 677.36) rotate(-126.75)"/><rect class="cls-2" x="241.51" y="300.29" width="1.02" height="1.07" transform="translate(145.82 674.73) rotate(-126.75)"/><rect class="cls-2" x="240.68" y="299.18" width="1.02" height="1.07" transform="translate(145.38 672.31) rotate(-126.75)"/><rect class="cls-2" x="239.76" y="297.95" width="1.02" height="1.07" transform="translate(144.9 669.6) rotate(-126.75)"/><rect class="cls-2" x="240.37" y="301.14" width="1.02" height="1.07" transform="translate(143.32 675.18) rotate(-126.75)"/><rect class="cls-2" x="239.54" y="300.03" width="1.02" height="1.07" transform="translate(142.88 672.75) rotate(-126.75)"/><rect class="cls-2" x="238.62" y="298.8" width="1.02" height="1.07" transform="translate(142.4 670.05) rotate(-126.75)"/><rect class="cls-2" x="238.41" y="300.88" width="1.02" height="1.07" transform="translate(140.38 673.2) rotate(-126.75)"/><rect class="cls-2" x="237.49" y="299.65" width="1.02" height="1.07" transform="translate(139.9 670.5) rotate(-126.75)"/><rect class="cls-2" x="236.17" y="300.64" width="1.02" height="1.07" transform="translate(137.01 671.01) rotate(-126.75)"/><rect class="cls-2" x="241.38" y="267.62" width="1" height="1.07" transform="translate(311.99 -86.1) rotate(53.25)"/><rect class="cls-2" x="240.1" y="268.58" width="1" height="1.07" transform="translate(312.24 -84.69) rotate(53.25)"/><rect class="cls-2" x="240.97" y="269.75" width="1" height="1.07" transform="translate(313.53 -84.92) rotate(53.25)"/><rect class="cls-2" x="239.02" y="269.39" width="1" height="1.07" transform="translate(312.45 -83.5) rotate(53.25)"/><rect class="cls-2" x="239.9" y="270.56" width="1" height="1.07" transform="matrix(0.6, 0.8, -0.8, 0.6, 313.75, -83.73)"/><rect class="cls-2" x="240.7" y="271.64" width="1" height="1.07" transform="translate(314.94 -83.95) rotate(53.25)"/><rect class="cls-2" x="237.73" y="270.35" width="1" height="1.07" transform="translate(312.71 -82.08) rotate(53.25)"/><rect class="cls-2" x="238.61" y="271.52" width="1" height="1.07" transform="translate(314 -82.32) rotate(53.25)"/><rect class="cls-2" x="239.42" y="272.6" width="1" height="1.07" transform="translate(315.19 -82.53) rotate(53.25)"/><rect class="cls-2" x="240.32" y="273.81" width="1" height="1.07" transform="translate(316.52 -82.77) rotate(53.25)"/><rect class="cls-2" x="237.47" y="272.37" width="1" height="1.07" transform="translate(314.22 -81.06) rotate(53.25)"/><rect class="cls-2" x="238.28" y="273.45" width="1" height="1.07" transform="translate(315.41 -81.28) rotate(53.25)"/><rect class="cls-2" x="239.18" y="274.66" width="1" height="1.07" transform="translate(316.74 -81.51) rotate(53.25)"/><rect class="cls-2" x="237.14" y="274.3" width="1" height="1.07" transform="translate(315.64 -80.02) rotate(53.25)"/><rect class="cls-2" x="238.04" y="275.51" width="1" height="1.07" transform="translate(316.97 -80.26) rotate(53.25)"/><rect class="cls-2" x="236.73" y="276.49" width="1" height="1.07" transform="translate(317.23 -78.81) rotate(53.25)"/><rect class="cls-2" x="248.1" y="276.69" width="1.01" height="1.07" transform="translate(175.26 642.3) rotate(-126.75)"/><rect class="cls-2" x="246.82" y="277.65" width="1.01" height="1.07" transform="translate(172.45 642.8) rotate(-126.75)"/><rect class="cls-2" x="245.94" y="276.46" width="1.01" height="1.07" transform="translate(171.98 640.2) rotate(-126.75)"/><rect class="cls-2" x="245.75" y="278.45" width="1.01" height="1.07" transform="translate(170.08 643.22) rotate(-126.75)"/><rect class="cls-2" x="244.86" y="277.27" width="1.01" height="1.07" transform="translate(169.62 640.62) rotate(-126.75)"/><rect class="cls-2" x="244.05" y="276.18" width="1.01" height="1.07" transform="translate(169.19 638.22) rotate(-126.75)"/><rect class="cls-2" x="244.46" y="279.41" width="1.01" height="1.07" transform="translate(167.25 643.73) rotate(-126.75)"/><rect class="cls-2" x="243.57" y="278.23" width="1.01" height="1.07" transform="translate(166.79 641.13) rotate(-126.75)"/><rect class="cls-2" x="242.76" y="277.14" width="1.01" height="1.07" transform="translate(166.36 638.73) rotate(-126.75)"/><rect class="cls-2" x="241.85" y="275.92" width="1.01" height="1.07" transform="translate(165.88 636.05) rotate(-126.75)"/><rect class="cls-2" x="242.44" y="279.08" width="1.01" height="1.07" transform="translate(164.29 641.57) rotate(-126.75)"/><rect class="cls-2" x="241.62" y="277.99" width="1.01" height="1.07" transform="translate(163.86 639.17) rotate(-126.75)"/><rect class="cls-2" x="240.71" y="276.77" width="1.01" height="1.07" transform="translate(163.38 636.5) rotate(-126.75)"/><rect class="cls-2" x="240.48" y="278.84" width="1.01" height="1.07" transform="translate(161.36 639.62) rotate(-126.75)"/><rect class="cls-2" x="239.57" y="277.62" width="1.01" height="1.07" transform="translate(160.88 636.94) rotate(-126.75)"/><rect class="cls-2" x="238.25" y="278.6" width="1.01" height="1.07" transform="translate(157.99 637.46) rotate(-126.75)"/><rect class="cls-2" x="237.93" y="280.75" width="1.07" height="1" transform="translate(-120.89 198.6) rotate(-36.75)"/><rect class="cls-2" x="238.82" y="281.95" width="1.07" height="1" transform="translate(-121.43 199.38) rotate(-36.75)"/><rect class="cls-2" x="240.07" y="281.02" width="1.07" height="1" transform="translate(-120.63 199.94) rotate(-36.75)"/><rect class="cls-2" x="239.58" y="282.97" width="1.07" height="1" transform="translate(-121.89 200.03) rotate(-36.75)"/><rect class="cls-2" x="240.83" y="282.03" width="1.07" height="1" transform="translate(-121.08 200.59) rotate(-36.75)"/><rect class="cls-2" x="241.98" y="281.17" width="1.07" height="1" transform="translate(-120.34 201.11) rotate(-36.75)"/><rect class="cls-2" x="240.48" y="284.17" width="1.07" height="1" transform="translate(-122.43 200.81) rotate(-36.75)"/><rect class="cls-2" x="241.73" y="283.24" width="1.07" height="1" transform="translate(-121.63 201.37) rotate(-36.75)"/><rect class="cls-2" x="242.88" y="282.38" width="1.07" height="1" transform="translate(-120.88 201.89) rotate(-36.75)"/><rect class="cls-2" x="244.17" y="281.42" width="1.07" height="1" transform="translate(-120.05 202.47) rotate(-36.75)"/><rect class="cls-2" x="242.53" y="284.31" width="1.07" height="1" transform="translate(-122.11 202.06) rotate(-36.75)"/><rect class="cls-2" x="243.68" y="283.45" width="1.07" height="1" transform="translate(-121.36 202.58) rotate(-36.75)"/><rect class="cls-2" x="244.97" y="282.48" width="1.07" height="1" transform="translate(-120.53 203.16) rotate(-36.75)"/><rect class="cls-2" x="244.48" y="284.51" width="1.07" height="1" transform="translate(-121.84 203.27) rotate(-36.75)"/><rect class="cls-2" x="245.77" y="283.55" width="1.07" height="1" transform="translate(-121.01 203.85) rotate(-36.75)"/><rect class="cls-2" x="246.69" y="284.79" width="1.07" height="1" transform="translate(-121.57 204.65) rotate(-36.75)"/><rect class="cls-2" x="223.76" y="273.94" width="1.07" height="1" transform="translate(-119.63 188.77) rotate(-36.75)"/><rect class="cls-2" x="224.65" y="275.14" width="1.07" height="1" transform="translate(-120.17 189.54) rotate(-36.75)"/><rect class="cls-2" x="225.9" y="274.21" width="1.07" height="1" transform="translate(-119.37 190.11) rotate(-36.75)"/><rect class="cls-2" x="225.41" y="276.15" width="1.07" height="1" transform="translate(-120.63 190.2) rotate(-36.75)"/><rect class="cls-2" x="226.66" y="275.22" width="1.07" height="1" transform="translate(-119.82 190.76) rotate(-36.75)"/><rect class="cls-2" x="227.81" y="274.36" width="1.07" height="1" transform="translate(-119.08 191.28) rotate(-36.75)"/><rect class="cls-2" x="226.31" y="277.36" width="1.07" height="1" transform="translate(-121.17 190.98) rotate(-36.75)"/><rect class="cls-2" x="227.56" y="276.43" width="1.07" height="1" transform="translate(-120.36 191.54) rotate(-36.75)"/><rect class="cls-2" x="228.71" y="275.56" width="1.07" height="1" transform="translate(-119.62 192.06) rotate(-36.75)"/><rect class="cls-2" x="230" y="274.6" width="1.07" height="1" transform="translate(-118.79 192.64) rotate(-36.75)"/><rect class="cls-2" x="228.36" y="277.49" width="1.07" height="1" transform="translate(-120.85 192.23) rotate(-36.75)"/><rect class="cls-2" x="229.51" y="276.63" width="1.07" height="1" transform="translate(-120.1 192.75) rotate(-36.75)"/><rect class="cls-2" x="230.8" y="275.67" width="1.07" height="1" transform="translate(-119.27 193.33) rotate(-36.75)"/><rect class="cls-2" x="230.31" y="277.7" width="1.07" height="1" transform="translate(-120.58 193.44) rotate(-36.75)"/><rect class="cls-2" x="231.6" y="276.74" width="1.07" height="1" transform="translate(-119.75 194.02) rotate(-36.75)"/><rect class="cls-2" x="232.52" y="277.97" width="1.07" height="1" transform="translate(-120.31 194.82) rotate(-36.75)"/><rect class="cls-2" x="234.65" y="276.15" width="1.07" height="0.98" transform="translate(-118.79 195.73) rotate(-36.75)"/><rect class="cls-2" x="233.77" y="274.97" width="1.07" height="0.98" transform="translate(-118.26 194.96) rotate(-36.75)"/><rect class="cls-2" x="235.02" y="274.03" width="1.07" height="0.98" transform="matrix(0.8, -0.6, 0.6, 0.8, -117.44, 195.53)"/><rect class="cls-2" x="233.02" y="273.98" width="1.07" height="0.98" transform="translate(-117.81 194.32) rotate(-36.75)"/><rect class="cls-2" x="234.28" y="273.04" width="1.07" height="0.98" transform="translate(-117 194.89) rotate(-36.75)"/><rect class="cls-2" x="235.44" y="272.17" width="1.07" height="0.98" transform="translate(-116.25 195.41) rotate(-36.75)"/><rect class="cls-2" x="232.14" y="272.79" width="1.07" height="0.98" transform="translate(-117.28 193.56) rotate(-36.75)"/><rect class="cls-2" x="233.4" y="271.85" width="1.07" height="0.98" transform="translate(-116.46 194.12) rotate(-36.75)"/><rect class="cls-2" x="234.56" y="270.99" width="1.07" height="0.98" transform="translate(-115.72 194.64) rotate(-36.75)"/><rect class="cls-2" x="235.85" y="270.02" width="1.07" height="0.98" transform="translate(-114.88 195.23) rotate(-36.75)"/><rect class="cls-2" x="232.61" y="270.81" width="1.07" height="0.98" transform="matrix(0.8, -0.6, 0.6, 0.8, -115.99, 193.45)"/><rect class="cls-2" x="233.77" y="269.94" width="1.07" height="0.98" transform="translate(-115.24 193.97) rotate(-36.75)"/><rect class="cls-2" x="235.07" y="268.97" width="1.07" height="0.98" transform="translate(-114.41 194.55) rotate(-36.75)"/><rect class="cls-2" x="232.99" y="268.89" width="1.07" height="0.98" transform="translate(-114.77 193.29) rotate(-36.75)"/><rect class="cls-2" x="234.28" y="267.92" width="1.07" height="0.98" transform="translate(-113.94 193.87) rotate(-36.75)"/><rect class="cls-2" x="233.38" y="266.71" width="1.07" height="0.98" transform="translate(-113.39 193.09) rotate(-36.75)"/><rect class="cls-2" x="237.2" y="292.01" width="1.07" height="1.02" transform="translate(-127.78 200.41) rotate(-36.75)"/><rect class="cls-2" x="236.29" y="290.79" width="1.07" height="1.02" transform="translate(-127.23 199.62) rotate(-36.75)"/><rect class="cls-2" x="237.54" y="289.85" width="1.07" height="1.02" transform="translate(-126.42 200.18) rotate(-36.75)"/><rect class="cls-2" x="235.52" y="289.75" width="1.07" height="1.02" transform="translate(-126.76 198.95) rotate(-36.75)"/><rect class="cls-2" x="236.77" y="288.82" width="1.07" height="1.02" transform="translate(-125.96 199.51) rotate(-36.75)"/><rect class="cls-2" x="237.92" y="287.96" width="1.07" height="1.02" transform="translate(-125.21 200.03) rotate(-36.75)"/><rect class="cls-2" x="234.6" y="288.52" width="1.07" height="1.02" transform="translate(-126.21 198.16) rotate(-36.75)"/><rect class="cls-2" x="235.85" y="287.58" width="1.07" height="1.02" transform="translate(-125.4 198.72) rotate(-36.75)"/><rect class="cls-2" x="237" y="286.72" width="1.07" height="1.02" transform="translate(-124.66 199.24) rotate(-36.75)"/><rect class="cls-2" x="238.29" y="285.76" width="1.07" height="1.02" transform="translate(-123.83 199.82) rotate(-36.75)"/><rect class="cls-2" x="235.03" y="286.49" width="1.07" height="1.02" transform="translate(-124.91 198.01) rotate(-36.75)"/><rect class="cls-2" x="236.18" y="285.63" width="1.07" height="1.02" transform="translate(-124.17 198.53) rotate(-36.75)"/><rect class="cls-2" x="237.47" y="284.67" width="1.07" height="1.02" transform="translate(-123.34 199.11) rotate(-36.75)"/><rect class="cls-2" x="235.37" y="284.54" width="1.07" height="1.02" transform="translate(-123.68 197.83) rotate(-36.75)"/><rect class="cls-2" x="236.66" y="283.58" width="1.07" height="1.02" transform="translate(-122.85 198.41) rotate(-36.75)"/><rect class="cls-2" x="235.71" y="282.32" width="1.07" height="1.02" transform="translate(-122.28 197.59) rotate(-36.75)"/><rect class="cls-2" x="233.62" y="282.06" width="1" height="1.07" transform="translate(320.44 -74.09) rotate(53.25)"/><rect class="cls-2" x="232.34" y="283.01" width="1" height="1.07" transform="translate(320.69 -72.68) rotate(53.25)"/><rect class="cls-2" x="233.22" y="284.19" width="1" height="1.07" transform="translate(321.98 -72.91) rotate(53.25)"/><rect class="cls-2" x="231.26" y="283.82" width="1" height="1.07" transform="translate(320.9 -71.49) rotate(53.25)"/><rect class="cls-2" x="232.14" y="284.99" width="1" height="1.07" transform="translate(322.19 -71.72) rotate(53.25)"/><rect class="cls-2" x="232.95" y="286.07" width="1" height="1.07" transform="translate(323.39 -71.94) rotate(53.25)"/><rect class="cls-2" x="229.98" y="284.78" width="1" height="1.07" transform="translate(321.16 -70.07) rotate(53.25)"/><rect class="cls-2" x="230.85" y="285.95" width="1" height="1.07" transform="translate(322.45 -70.3) rotate(53.25)"/><rect class="cls-2" x="231.66" y="287.04" width="1" height="1.07" transform="translate(323.64 -70.52) rotate(53.25)"/><rect class="cls-2" x="232.56" y="288.24" width="1" height="1.07" transform="translate(324.97 -70.76) rotate(53.25)"/><rect class="cls-2" x="229.71" y="286.8" width="1" height="1.07" transform="matrix(0.6, 0.8, -0.8, 0.6, 322.67, -69.05)"/><rect class="cls-2" x="230.52" y="287.89" width="1" height="1.07" transform="translate(323.86 -69.26) rotate(53.25)"/><rect class="cls-2" x="231.42" y="289.09" width="1" height="1.07" transform="matrix(0.6, 0.8, -0.8, 0.6, 325.19, -69.5)"/><rect class="cls-2" x="229.38" y="288.74" width="1" height="1.07" transform="translate(324.09 -68.01) rotate(53.25)"/><rect class="cls-2" x="230.29" y="289.94" width="1" height="1.07" transform="matrix(0.6, 0.8, -0.8, 0.6, 325.42, -68.25)"/><rect class="cls-2" x="228.97" y="290.93" width="1" height="1.07" transform="translate(325.68 -66.8) rotate(53.25)"/><rect class="cls-2" x="231.94" y="279.87" width="1.02" height="1.07" transform="translate(146.88 634.43) rotate(-126.75)"/><rect class="cls-2" x="230.66" y="280.82" width="1.02" height="1.07" transform="translate(144.07 634.93) rotate(-126.75)"/><rect class="cls-2" x="229.76" y="279.63" width="1.02" height="1.07" transform="translate(143.6 632.3) rotate(-126.75)"/><rect class="cls-2" x="229.58" y="281.63" width="1.02" height="1.07" transform="translate(141.7 635.35) rotate(-126.75)"/><rect class="cls-2" x="228.69" y="280.43" width="1.02" height="1.07" transform="translate(141.23 632.73) rotate(-126.75)"/><rect class="cls-2" x="227.86" y="279.33" width="1.02" height="1.07" transform="translate(140.8 630.3) rotate(-126.75)"/><rect class="cls-2" x="228.29" y="282.59" width="1.02" height="1.07" transform="translate(138.87 635.86) rotate(-126.75)"/><rect class="cls-2" x="227.4" y="281.4" width="1.02" height="1.07" transform="translate(138.4 633.23) rotate(-126.75)"/><rect class="cls-2" x="226.57" y="280.29" width="1.02" height="1.07" transform="translate(137.97 630.81) rotate(-126.75)"/><rect class="cls-2" x="225.65" y="279.06" width="1.02" height="1.07" transform="translate(137.48 628.1) rotate(-126.75)"/><rect class="cls-2" x="226.26" y="282.25" width="1.02" height="1.07" transform="translate(135.9 633.68) rotate(-126.75)"/><rect class="cls-2" x="225.44" y="281.14" width="1.02" height="1.07" transform="translate(135.47 631.26) rotate(-126.75)"/><rect class="cls-2" x="224.52" y="279.91" width="1.02" height="1.07" transform="translate(134.99 628.55) rotate(-126.75)"/><rect class="cls-2" x="224.3" y="281.99" width="1.02" height="1.07" transform="translate(132.97 631.7) rotate(-126.75)"/><rect class="cls-2" x="223.38" y="280.76" width="1.02" height="1.07" transform="translate(132.49 629) rotate(-126.75)"/><rect class="cls-2" x="222.06" y="281.75" width="1.02" height="1.07" transform="translate(129.59 629.52) rotate(-126.75)"/><rect class="cls-2" x="227.28" y="248.75" width="1" height="1.07" transform="translate(291.21 -82.39) rotate(53.25)"/><rect class="cls-2" x="226" y="249.71" width="1" height="1.07" transform="translate(291.46 -80.98) rotate(53.25)"/><rect class="cls-2" x="226.88" y="250.88" width="1" height="1.07" transform="translate(292.75 -81.21) rotate(53.25)"/><rect class="cls-2" x="224.93" y="250.51" width="1" height="1.07" transform="translate(291.67 -79.79) rotate(53.25)"/><rect class="cls-2" x="225.8" y="251.69" width="1" height="1.07" transform="translate(292.96 -80.02) rotate(53.25)"/><rect class="cls-2" x="226.61" y="252.77" width="1" height="1.07" transform="translate(294.16 -80.23) rotate(53.25)"/><rect class="cls-2" x="223.64" y="251.48" width="1" height="1.07" transform="translate(291.93 -78.37) rotate(53.25)"/><rect class="cls-2" x="224.51" y="252.65" width="1" height="1.07" transform="translate(293.22 -78.6) rotate(53.25)"/><rect class="cls-2" x="225.32" y="253.73" width="1" height="1.07" transform="translate(294.41 -78.82) rotate(53.25)"/><rect class="cls-2" x="226.22" y="254.94" width="1" height="1.07" transform="translate(295.74 -79.05) rotate(53.25)"/><rect class="cls-2" x="223.38" y="253.5" width="1" height="1.07" transform="translate(293.44 -77.35) rotate(53.25)"/><rect class="cls-2" x="224.18" y="254.58" width="1" height="1.07" transform="translate(294.63 -77.56) rotate(53.25)"/><rect class="cls-2" x="225.09" y="255.79" width="1" height="1.07" transform="translate(295.96 -77.8) rotate(53.25)"/><rect class="cls-2" x="223.05" y="255.43" width="1" height="1.07" transform="translate(294.86 -76.31) rotate(53.25)"/><rect class="cls-2" x="223.95" y="256.64" width="1" height="1.07" transform="translate(296.19 -76.55) rotate(53.25)"/><rect class="cls-2" x="222.63" y="257.62" width="1" height="1.07" transform="translate(296.45 -75.1) rotate(53.25)"/><rect class="cls-2" x="234.01" y="257.82" width="1.01" height="1.07" transform="translate(167.85 600.84) rotate(-126.75)"/><rect class="cls-2" x="232.73" y="258.78" width="1.01" height="1.07" transform="translate(165.04 601.34) rotate(-126.75)"/><rect class="cls-2" x="231.85" y="257.59" width="1.01" height="1.07" transform="translate(164.58 598.74) rotate(-126.75)"/><rect class="cls-2" x="231.65" y="259.58" width="1.01" height="1.07" transform="translate(162.67 601.77) rotate(-126.75)"/><rect class="cls-2" x="230.77" y="258.4" width="1.01" height="1.07" transform="translate(162.21 599.17) rotate(-126.75)"/><rect class="cls-2" x="229.95" y="257.3" width="1.01" height="1.07" transform="translate(161.78 596.77) rotate(-126.75)"/><rect class="cls-2" x="230.36" y="260.54" width="1.01" height="1.07" transform="translate(159.84 602.27) rotate(-126.75)"/><rect class="cls-2" x="229.48" y="259.36" width="1.01" height="1.07" transform="translate(159.38 599.67) rotate(-126.75)"/><rect class="cls-2" x="228.66" y="258.27" width="1.01" height="1.07" transform="translate(158.95 597.27) rotate(-126.75)"/><rect class="cls-2" x="227.75" y="257.05" width="1.01" height="1.07" transform="translate(158.47 594.59) rotate(-126.75)"/><rect class="cls-2" x="228.34" y="260.21" width="1.01" height="1.07" transform="translate(156.88 600.12) rotate(-126.75)"/><rect class="cls-2" x="227.53" y="259.12" width="1.01" height="1.07" transform="translate(156.45 597.72) rotate(-126.75)"/><rect class="cls-2" x="226.62" y="257.9" width="1.01" height="1.07" transform="translate(155.97 595.04) rotate(-126.75)"/><rect class="cls-2" x="226.39" y="259.97" width="1.01" height="1.07" transform="translate(153.95 598.16) rotate(-126.75)"/><rect class="cls-2" x="225.48" y="258.75" width="1.01" height="1.07" transform="translate(153.47 595.49) rotate(-126.75)"/><rect class="cls-2" x="224.16" y="259.73" width="1.01" height="1.07" transform="translate(150.58 596) rotate(-126.75)"/><rect class="cls-2" x="223.83" y="261.88" width="1.07" height="1" transform="translate(-112.4 186.42) rotate(-36.75)"/><rect class="cls-2" x="224.73" y="263.08" width="1.07" height="1" transform="translate(-112.94 187.19) rotate(-36.75)"/><rect class="cls-2" x="225.98" y="262.15" width="1.07" height="1" transform="translate(-112.14 187.75) rotate(-36.75)"/><rect class="cls-2" x="225.48" y="264.09" width="1.07" height="1" transform="translate(-113.4 187.85) rotate(-36.75)"/><rect class="cls-2" x="226.73" y="263.16" width="1.07" height="1" transform="translate(-112.59 188.41) rotate(-36.75)"/><rect class="cls-2" x="227.89" y="262.3" width="1.07" height="1" transform="translate(-111.85 188.93) rotate(-36.75)"/><rect class="cls-2" x="226.39" y="265.3" width="1.07" height="1" transform="translate(-113.94 188.63) rotate(-36.75)"/><rect class="cls-2" x="227.64" y="264.37" width="1.07" height="1" transform="translate(-113.14 189.19) rotate(-36.75)"/><rect class="cls-2" x="228.79" y="263.51" width="1.07" height="1" transform="translate(-112.39 189.71) rotate(-36.75)"/><rect class="cls-2" x="230.08" y="262.55" width="1.07" height="1" transform="translate(-111.56 190.29) rotate(-36.75)"/><rect class="cls-2" x="228.43" y="265.44" width="1.07" height="1" transform="translate(-113.62 189.88) rotate(-36.75)"/><rect class="cls-2" x="229.59" y="264.58" width="1.07" height="1" transform="translate(-112.87 190.4) rotate(-36.75)"/><rect class="cls-2" x="230.87" y="263.61" width="1.07" height="1" transform="translate(-112.04 190.98) rotate(-36.75)"/><rect class="cls-2" x="230.38" y="265.64" width="1.07" height="1" transform="translate(-113.35 191.09) rotate(-36.75)"/><rect class="cls-2" x="231.67" y="264.68" width="1.07" height="1" transform="translate(-112.52 191.66) rotate(-36.75)"/><rect class="cls-2" x="232.59" y="265.92" width="1.07" height="1" transform="translate(-113.08 192.46) rotate(-36.75)"/><rect class="cls-2" x="209.66" y="255.07" width="1.07" height="1" transform="translate(-111.14 176.58) rotate(-36.75)"/><rect class="cls-2" x="210.56" y="256.27" width="1.07" height="1" transform="translate(-111.68 177.36) rotate(-36.75)"/><rect class="cls-2" x="211.81" y="255.33" width="1.07" height="1" transform="translate(-110.88 177.92) rotate(-36.75)"/><rect class="cls-2" x="211.31" y="257.28" width="1.07" height="1" transform="translate(-112.14 178.01) rotate(-36.75)"/><rect class="cls-2" x="212.56" y="256.35" width="1.07" height="1" transform="translate(-111.33 178.57) rotate(-36.75)"/><rect class="cls-2" x="213.72" y="255.48" width="1.07" height="1" transform="translate(-110.59 179.09) rotate(-36.75)"/><rect class="cls-2" x="212.22" y="258.49" width="1.07" height="1" transform="translate(-112.68 178.79) rotate(-36.75)"/><rect class="cls-2" x="213.47" y="257.55" width="1.07" height="1" transform="translate(-111.87 179.35) rotate(-36.75)"/><rect class="cls-2" x="214.62" y="256.69" width="1.07" height="1" transform="translate(-111.13 179.87) rotate(-36.75)"/><rect class="cls-2" x="215.91" y="255.73" width="1.07" height="1" transform="translate(-110.3 180.45) rotate(-36.75)"/><rect class="cls-2" x="214.26" y="258.62" width="1.07" height="1" transform="translate(-112.35 180.04) rotate(-36.75)"/><rect class="cls-2" x="215.42" y="257.76" width="1.07" height="1" transform="translate(-111.61 180.56) rotate(-36.75)"/><rect class="cls-2" x="216.71" y="256.8" width="1.07" height="1" transform="translate(-110.78 181.14) rotate(-36.75)"/><rect class="cls-2" x="216.21" y="258.83" width="1.07" height="1" transform="translate(-112.09 181.25) rotate(-36.75)"/><rect class="cls-2" x="217.5" y="257.87" width="1.07" height="1" transform="translate(-111.26 181.83) rotate(-36.75)"/><rect class="cls-2" x="218.43" y="259.1" width="1.07" height="1" transform="translate(-111.82 182.63) rotate(-36.75)"/><rect class="cls-2" x="220.55" y="257.28" width="1.07" height="0.98" transform="translate(-110.3 183.54) rotate(-36.75)"/><rect class="cls-2" x="219.67" y="256.1" width="1.07" height="0.98" transform="translate(-109.77 182.78) rotate(-36.75)"/><rect class="cls-2" x="220.93" y="255.16" width="1.07" height="0.98" transform="translate(-108.95 183.34) rotate(-36.75)"/><rect class="cls-2" x="218.93" y="255.11" width="1.07" height="0.98" transform="translate(-109.32 182.14) rotate(-36.75)"/><rect class="cls-2" x="220.19" y="254.17" width="1.07" height="0.98" transform="translate(-108.51 182.7) rotate(-36.75)"/><rect class="cls-2" x="221.35" y="253.3" width="1.07" height="0.98" transform="translate(-107.76 183.23) rotate(-36.75)"/><rect class="cls-2" x="218.04" y="253.92" width="1.07" height="0.98" transform="translate(-108.79 181.37) rotate(-36.75)"/><rect class="cls-2" x="219.3" y="252.98" width="1.07" height="0.98" transform="matrix(0.8, -0.6, 0.6, 0.8, -107.97, 181.94)"/><rect class="cls-2" x="220.46" y="252.12" width="1.07" height="0.98" transform="translate(-107.22 182.46) rotate(-36.75)"/><rect class="cls-2" x="221.76" y="251.15" width="1.07" height="0.98" transform="translate(-106.39 183.04) rotate(-36.75)"/><rect class="cls-2" x="218.52" y="251.93" width="1.07" height="0.98" transform="translate(-107.5 181.26) rotate(-36.75)"/><rect class="cls-2" x="219.68" y="251.07" width="1.07" height="0.98" transform="translate(-106.75 181.78) rotate(-36.75)"/><rect class="cls-2" x="220.97" y="250.1" width="1.07" height="0.98" transform="translate(-105.92 182.36) rotate(-36.75)"/><rect class="cls-2" x="218.9" y="250.02" width="1.07" height="0.98" transform="translate(-106.28 181.11) rotate(-36.75)"/><rect class="cls-2" x="220.19" y="249.05" width="1.07" height="0.98" transform="translate(-105.44 181.69) rotate(-36.75)"/><rect class="cls-2" x="219.28" y="247.84" width="1.07" height="0.98" transform="translate(-104.9 180.9) rotate(-36.75)"/><rect class="cls-2" x="223.11" y="273.14" width="1.07" height="1.02" transform="translate(-119.29 188.23) rotate(-36.75)"/><rect class="cls-2" x="222.19" y="271.91" width="1.07" height="1.02" transform="translate(-118.74 187.43) rotate(-36.75)"/><rect class="cls-2" x="223.44" y="270.98" width="1.07" height="1.02" transform="translate(-117.93 188) rotate(-36.75)"/><rect class="cls-2" x="221.42" y="270.88" width="1.07" height="1.02" transform="translate(-118.27 186.77) rotate(-36.75)"/><rect class="cls-2" x="222.67" y="269.95" width="1.07" height="1.02" transform="translate(-117.47 187.33) rotate(-36.75)"/><rect class="cls-2" x="223.83" y="269.09" width="1.07" height="1.02" transform="translate(-116.72 187.85) rotate(-36.75)"/><rect class="cls-2" x="220.5" y="269.65" width="1.07" height="1.02" transform="translate(-117.72 185.97) rotate(-36.75)"/><rect class="cls-2" x="221.75" y="268.71" width="1.07" height="1.02" transform="translate(-116.91 186.53) rotate(-36.75)"/><rect class="cls-2" x="222.9" y="267.85" width="1.07" height="1.02" transform="translate(-116.17 187.05) rotate(-36.75)"/><rect class="cls-2" x="224.19" y="266.89" width="1.07" height="1.02" transform="translate(-115.34 187.63) rotate(-36.75)"/><rect class="cls-2" x="220.94" y="267.62" width="1.07" height="1.02" transform="translate(-116.42 185.83) rotate(-36.75)"/><rect class="cls-2" x="222.09" y="266.76" width="1.07" height="1.02" transform="translate(-115.68 186.35) rotate(-36.75)"/><rect class="cls-2" x="223.38" y="265.8" width="1.07" height="1.02" transform="translate(-114.85 186.93) rotate(-36.75)"/><rect class="cls-2" x="221.28" y="265.67" width="1.07" height="1.02" transform="translate(-115.19 185.64) rotate(-36.75)"/><rect class="cls-2" x="222.56" y="264.71" width="1.07" height="1.02" transform="translate(-114.35 186.22) rotate(-36.75)"/><rect class="cls-2" x="221.62" y="263.45" width="1.07" height="1.02" transform="translate(-113.79 185.41) rotate(-36.75)"/><rect class="cls-2" x="219.53" y="263.19" width="1" height="1.07" transform="translate(299.66 -70.37) rotate(53.25)"/><rect class="cls-2" x="218.25" y="264.14" width="1" height="1.07" transform="matrix(0.6, 0.8, -0.8, 0.6, 299.91, -68.97)"/><rect class="cls-2" x="219.12" y="265.32" width="1" height="1.07" transform="translate(301.2 -69.2) rotate(53.25)"/><rect class="cls-2" x="217.17" y="264.95" width="1" height="1.07" transform="translate(300.12 -67.78) rotate(53.25)"/><rect class="cls-2" x="218.05" y="266.12" width="1" height="1.07" transform="translate(301.41 -68.01) rotate(53.25)"/><rect class="cls-2" x="218.85" y="267.2" width="1" height="1.07" transform="translate(302.61 -68.22) rotate(53.25)"/><rect class="cls-2" x="215.88" y="265.91" width="1" height="1.07" transform="translate(300.38 -66.36) rotate(53.25)"/><rect class="cls-2" x="216.76" y="267.08" width="1" height="1.07" transform="translate(301.67 -66.59) rotate(53.25)"/><rect class="cls-2" x="217.57" y="268.16" width="1" height="1.07" transform="translate(302.86 -66.8) rotate(53.25)"/><rect class="cls-2" x="218.47" y="269.37" width="1" height="1.07" transform="translate(304.19 -67.04) rotate(53.25)"/><rect class="cls-2" x="215.62" y="267.93" width="1" height="1.07" transform="translate(301.89 -65.34) rotate(53.25)"/><rect class="cls-2" x="216.43" y="269.01" width="1" height="1.07" transform="translate(303.08 -65.55) rotate(53.25)"/><rect class="cls-2" x="217.33" y="270.22" width="1" height="1.07" transform="matrix(0.6, 0.8, -0.8, 0.6, 304.41, -65.79)"/><rect class="cls-2" x="215.29" y="269.86" width="1" height="1.07" transform="matrix(0.6, 0.8, -0.8, 0.6, 303.31, -64.3)"/><rect class="cls-2" x="216.19" y="271.07" width="1" height="1.07" transform="matrix(0.6, 0.8, -0.8, 0.6, 304.64, -64.54)"/><rect class="cls-2" x="214.87" y="272.06" width="1" height="1.07" transform="translate(304.9 -63.08) rotate(53.25)"/><rect class="cls-2" x="217.84" y="261" width="1.02" height="1.07" transform="translate(139.47 592.97) rotate(-126.75)"/><rect class="cls-2" x="216.56" y="261.95" width="1.02" height="1.07" transform="translate(136.66 593.47) rotate(-126.75)"/><rect class="cls-2" x="215.67" y="260.76" width="1.02" height="1.07" transform="translate(136.19 590.85) rotate(-126.75)"/><rect class="cls-2" x="215.48" y="262.76" width="1.02" height="1.07" transform="translate(134.29 593.9) rotate(-126.75)"/><rect class="cls-2" x="214.59" y="261.56" width="1.02" height="1.07" transform="translate(133.82 591.27) rotate(-126.75)"/><rect class="cls-2" x="213.77" y="260.46" width="1.02" height="1.07" transform="translate(133.39 588.85) rotate(-126.75)"/><rect class="cls-2" x="214.2" y="263.72" width="1.02" height="1.07" transform="translate(131.46 594.4) rotate(-126.75)"/><rect class="cls-2" x="213.3" y="262.52" width="1.02" height="1.07" transform="translate(130.99 591.78) rotate(-126.75)"/><rect class="cls-2" x="212.48" y="261.42" width="1.02" height="1.07" transform="translate(130.56 589.35) rotate(-126.75)"/><rect class="cls-2" x="211.56" y="260.19" width="1.02" height="1.07" transform="translate(130.08 586.65) rotate(-126.75)"/><rect class="cls-2" x="212.17" y="263.37" width="1.02" height="1.07" transform="translate(128.49 592.22) rotate(-126.75)"/><rect class="cls-2" x="211.34" y="262.27" width="1.02" height="1.07" transform="translate(128.06 589.8) rotate(-126.75)"/><rect class="cls-2" x="210.42" y="261.04" width="1.02" height="1.07" transform="translate(127.58 587.1) rotate(-126.75)"/><rect class="cls-2" x="210.2" y="263.12" width="1.02" height="1.07" transform="translate(125.56 590.25) rotate(-126.75)"/><rect class="cls-2" x="209.28" y="261.89" width="1.02" height="1.07" transform="translate(125.08 587.54) rotate(-126.75)"/><rect class="cls-2" x="207.97" y="262.87" width="1.02" height="1.07" transform="translate(122.18 588.06) rotate(-126.75)"/><rect class="cls-2" x="213.79" y="230.68" width="1" height="1.07" transform="translate(271.31 -78.83) rotate(53.25)"/><rect class="cls-2" x="212.51" y="231.64" width="1" height="1.07" transform="translate(271.56 -77.42) rotate(53.25)"/><rect class="cls-2" x="213.38" y="232.81" width="1" height="1.07" transform="translate(272.85 -77.65) rotate(53.25)"/><rect class="cls-2" x="211.43" y="232.44" width="1" height="1.07" transform="translate(271.77 -76.23) rotate(53.25)"/><rect class="cls-2" x="212.31" y="233.62" width="1" height="1.07" transform="translate(273.07 -76.46) rotate(53.25)"/><rect class="cls-2" x="213.11" y="234.7" width="1" height="1.07" transform="translate(274.26 -76.68) rotate(53.25)"/><rect class="cls-2" x="210.14" y="233.4" width="1" height="1.07" transform="translate(272.03 -74.82) rotate(53.25)"/><rect class="cls-2" x="211.02" y="234.58" width="1" height="1.07" transform="translate(273.32 -75.05) rotate(53.25)"/><rect class="cls-2" x="211.83" y="235.66" width="1" height="1.07" transform="translate(274.51 -75.26) rotate(53.25)"/><rect class="cls-2" x="212.73" y="236.87" width="1" height="1.07" transform="translate(275.84 -75.5) rotate(53.25)"/><rect class="cls-2" x="209.88" y="235.43" width="1" height="1.07" transform="translate(273.54 -73.79) rotate(53.25)"/><rect class="cls-2" x="210.69" y="236.51" width="1" height="1.07" transform="translate(274.73 -74.01) rotate(53.25)"/><rect class="cls-2" x="211.59" y="237.72" width="1" height="1.07" transform="translate(276.07 -74.24) rotate(53.25)"/><rect class="cls-2" x="209.55" y="237.36" width="1" height="1.07" transform="translate(274.96 -72.75) rotate(53.25)"/><rect class="cls-2" x="210.45" y="238.57" width="1" height="1.07" transform="translate(276.29 -72.99) rotate(53.25)"/><rect class="cls-2" x="209.13" y="239.55" width="1" height="1.07" transform="translate(276.55 -71.54) rotate(53.25)"/><rect class="cls-2" x="220.51" y="239.75" width="1.01" height="1.07" transform="translate(160.76 561.14) rotate(-126.75)"/><rect class="cls-2" x="219.23" y="240.7" width="1.01" height="1.07" transform="translate(157.95 561.65) rotate(-126.75)"/><rect class="cls-2" x="218.35" y="239.52" width="1.01" height="1.07" transform="translate(157.48 559.04) rotate(-126.75)"/><rect class="cls-2" x="218.16" y="241.51" width="1.01" height="1.07" transform="translate(155.58 562.07) rotate(-126.75)"/><rect class="cls-2" x="217.27" y="240.33" width="1.01" height="1.07" transform="translate(155.11 559.47) rotate(-126.75)"/><rect class="cls-2" x="216.46" y="239.23" width="1.01" height="1.07" transform="translate(154.68 557.07) rotate(-126.75)"/><rect class="cls-2" x="216.87" y="242.47" width="1.01" height="1.07" transform="translate(152.75 562.57) rotate(-126.75)"/><rect class="cls-2" x="215.98" y="241.29" width="1.01" height="1.07" transform="translate(152.28 559.97) rotate(-126.75)"/><rect class="cls-2" x="215.17" y="240.2" width="1.01" height="1.07" transform="translate(151.86 557.57) rotate(-126.75)"/><rect class="cls-2" x="214.26" y="238.98" width="1.01" height="1.07" transform="translate(151.38 554.89) rotate(-126.75)"/><rect class="cls-2" x="214.85" y="242.14" width="1.01" height="1.07" transform="translate(149.78 560.42) rotate(-126.75)"/><rect class="cls-2" x="214.03" y="241.04" width="1.01" height="1.07" transform="translate(149.36 558.02) rotate(-126.75)"/><rect class="cls-2" x="213.12" y="239.83" width="1.01" height="1.07" transform="translate(148.88 555.34) rotate(-126.75)"/><rect class="cls-2" x="212.89" y="241.89" width="1.01" height="1.07" transform="translate(146.86 558.47) rotate(-126.75)"/><rect class="cls-2" x="211.98" y="240.68" width="1.01" height="1.07" transform="translate(146.38 555.79) rotate(-126.75)"/><rect class="cls-2" x="210.66" y="241.66" width="1.01" height="1.07" transform="translate(143.48 556.31) rotate(-126.75)"/><rect class="cls-2" x="210.33" y="243.81" width="1.07" height="1" transform="translate(-104.27 174.75) rotate(-36.75)"/><rect class="cls-2" x="211.23" y="245.01" width="1.07" height="1" transform="translate(-104.81 175.52) rotate(-36.75)"/><rect class="cls-2" x="212.48" y="244.08" width="1.07" height="1" transform="translate(-104.01 176.09) rotate(-36.75)"/><rect class="cls-2" x="211.99" y="246.02" width="1.07" height="1" transform="translate(-105.27 176.18) rotate(-36.75)"/><rect class="cls-2" x="213.24" y="245.09" width="1.07" height="1" transform="translate(-104.46 176.74) rotate(-36.75)"/><rect class="cls-2" x="214.39" y="244.23" width="1.07" height="1" transform="translate(-103.72 177.26) rotate(-36.75)"/><rect class="cls-2" x="212.89" y="247.23" width="1.07" height="1" transform="translate(-105.81 176.96) rotate(-36.75)"/><rect class="cls-2" x="214.14" y="246.3" width="1.07" height="1" transform="translate(-105.01 177.52) rotate(-36.75)"/><rect class="cls-2" x="215.29" y="245.44" width="1.07" height="1" transform="translate(-104.26 178.04) rotate(-36.75)"/><rect class="cls-2" x="216.58" y="244.48" width="1.07" height="1" transform="translate(-103.43 178.62) rotate(-36.75)"/><rect class="cls-2" x="214.94" y="247.37" width="1.07" height="1" transform="translate(-105.49 178.21) rotate(-36.75)"/><rect class="cls-2" x="216.09" y="246.5" width="1.07" height="1" transform="translate(-104.74 178.73) rotate(-36.75)"/><rect class="cls-2" x="217.38" y="245.54" width="1.07" height="1" transform="translate(-103.91 179.31) rotate(-36.75)"/><rect class="cls-2" x="216.89" y="247.57" width="1.07" height="1" transform="translate(-105.22 179.42) rotate(-36.75)"/><rect class="cls-2" x="218.17" y="246.61" width="1.07" height="1" transform="translate(-104.39 180) rotate(-36.75)"/><rect class="cls-2" x="219.1" y="247.85" width="1.07" height="1" transform="translate(-104.95 180.79) rotate(-36.75)"/><rect class="cls-2" x="196.17" y="237" width="1.07" height="1" transform="translate(-103.01 164.92) rotate(-36.75)"/><rect class="cls-2" x="197.06" y="238.2" width="1.07" height="1" transform="translate(-103.55 165.69) rotate(-36.75)"/><rect class="cls-2" x="198.31" y="237.26" width="1.07" height="1" transform="translate(-102.75 166.25) rotate(-36.75)"/><rect class="cls-2" x="197.82" y="239.21" width="1.07" height="1" transform="translate(-104.01 166.34) rotate(-36.75)"/><rect class="cls-2" x="199.07" y="238.27" width="1.07" height="1" transform="translate(-103.2 166.91) rotate(-36.75)"/><rect class="cls-2" x="200.22" y="237.41" width="1.07" height="1" transform="translate(-102.46 167.42) rotate(-36.75)"/><rect class="cls-2" x="198.72" y="240.42" width="1.07" height="1" transform="translate(-104.55 167.12) rotate(-36.75)"/><rect class="cls-2" x="199.97" y="239.48" width="1.07" height="1" transform="translate(-103.74 167.69) rotate(-36.75)"/><rect class="cls-2" x="201.12" y="238.62" width="1.07" height="1" transform="translate(-103 168.21) rotate(-36.75)"/><rect class="cls-2" x="202.41" y="237.66" width="1.07" height="1" transform="translate(-102.17 168.78) rotate(-36.75)"/><rect class="cls-2" x="200.77" y="240.55" width="1.07" height="1" transform="translate(-104.22 168.38) rotate(-36.75)"/><rect class="cls-2" x="201.92" y="239.69" width="1.07" height="1" transform="translate(-103.48 168.89) rotate(-36.75)"/><rect class="cls-2" x="203.21" y="238.73" width="1.07" height="1" transform="translate(-102.65 169.47) rotate(-36.75)"/><rect class="cls-2" x="202.72" y="240.76" width="1.07" height="1" transform="translate(-103.96 169.58) rotate(-36.75)"/><rect class="cls-2" x="204.01" y="239.8" width="1.07" height="1" transform="translate(-103.13 170.16) rotate(-36.75)"/><rect class="cls-2" x="204.93" y="241.03" width="1.07" height="1" transform="translate(-103.69 170.96) rotate(-36.75)"/><rect class="cls-2" x="207.06" y="239.21" width="1.07" height="0.98" transform="translate(-102.17 171.87) rotate(-36.75)"/><rect class="cls-2" x="206.18" y="238.03" width="1.07" height="0.98" transform="translate(-101.64 171.11) rotate(-36.75)"/><rect class="cls-2" x="207.43" y="237.09" width="1.07" height="0.98" transform="matrix(0.8, -0.6, 0.6, 0.8, -100.82, 171.68)"/><rect class="cls-2" x="205.43" y="237.04" width="1.07" height="0.98" transform="translate(-101.19 170.47) rotate(-36.75)"/><rect class="cls-2" x="206.69" y="236.1" width="1.07" height="0.98" transform="translate(-100.38 171.04) rotate(-36.75)"/><rect class="cls-2" x="207.85" y="235.23" width="1.07" height="0.98" transform="translate(-99.63 171.56) rotate(-36.75)"/><rect class="cls-2" x="204.55" y="235.85" width="1.07" height="0.98" transform="translate(-100.65 169.7) rotate(-36.75)"/><rect class="cls-2" x="205.81" y="234.91" width="1.07" height="0.98" transform="translate(-99.84 170.27) rotate(-36.75)"/><rect class="cls-2" x="206.97" y="234.05" width="1.07" height="0.98" transform="translate(-99.09 170.79) rotate(-36.75)"/><rect class="cls-2" x="208.26" y="233.08" width="1.07" height="0.98" transform="translate(-98.26 171.37) rotate(-36.75)"/><rect class="cls-2" x="205.02" y="233.86" width="1.07" height="0.98" transform="translate(-99.37 169.59) rotate(-36.75)"/><rect class="cls-2" x="206.18" y="233" width="1.07" height="0.98" transform="translate(-98.62 170.11) rotate(-36.75)"/><rect class="cls-2" x="207.48" y="232.03" width="1.07" height="0.98" transform="translate(-97.79 170.7) rotate(-36.75)"/><rect class="cls-2" x="205.4" y="231.95" width="1.07" height="0.98" transform="translate(-98.15 169.44) rotate(-36.75)"/><rect class="cls-2" x="206.69" y="230.98" width="1.07" height="0.98" transform="translate(-97.31 170.02) rotate(-36.75)"/><rect class="cls-2" x="205.79" y="229.77" width="1.07" height="0.98" transform="translate(-96.77 169.24) rotate(-36.75)"/><rect class="cls-2" x="209.61" y="255.07" width="1.07" height="1.02" transform="translate(-111.16 176.56) rotate(-36.75)"/><rect class="cls-2" x="208.7" y="253.84" width="1.07" height="1.02" transform="translate(-110.61 175.77) rotate(-36.75)"/><rect class="cls-2" x="209.95" y="252.91" width="1.07" height="1.02" transform="translate(-109.8 176.33) rotate(-36.75)"/><rect class="cls-2" x="207.93" y="252.81" width="1.07" height="1.02" transform="translate(-110.14 175.1) rotate(-36.75)"/><rect class="cls-2" x="209.18" y="251.88" width="1.07" height="1.02" transform="translate(-109.34 175.66) rotate(-36.75)"/><rect class="cls-2" x="210.33" y="251.02" width="1.07" height="1.02" transform="translate(-108.59 176.18) rotate(-36.75)"/><rect class="cls-2" x="207.01" y="251.58" width="1.07" height="1.02" transform="translate(-109.59 174.3) rotate(-36.75)"/><rect class="cls-2" x="208.26" y="250.64" width="1.07" height="1.02" transform="translate(-108.78 174.86) rotate(-36.75)"/><rect class="cls-2" x="209.41" y="249.78" width="1.07" height="1.02" transform="translate(-108.04 175.38) rotate(-36.75)"/><rect class="cls-2" x="210.7" y="248.82" width="1.07" height="1.02" transform="translate(-107.21 175.96) rotate(-36.75)"/><rect class="cls-2" x="207.44" y="249.55" width="1.07" height="1.02" transform="translate(-108.29 174.16) rotate(-36.75)"/><rect class="cls-2" x="208.59" y="248.69" width="1.07" height="1.02" transform="translate(-107.55 174.68) rotate(-36.75)"/><rect class="cls-2" x="209.88" y="247.73" width="1.07" height="1.02" transform="translate(-106.71 175.26) rotate(-36.75)"/><rect class="cls-2" x="207.78" y="247.6" width="1.07" height="1.02" transform="translate(-107.06 173.97) rotate(-36.75)"/><rect class="cls-2" x="209.07" y="246.64" width="1.07" height="1.02" transform="translate(-106.22 174.55) rotate(-36.75)"/><rect class="cls-2" x="208.12" y="245.38" width="1.07" height="1.02" transform="translate(-105.66 173.74) rotate(-36.75)"/><rect class="cls-2" x="206.03" y="245.12" width="1" height="1.07" transform="translate(279.76 -66.82) rotate(53.25)"/><rect class="cls-2" x="204.75" y="246.07" width="1" height="1.07" transform="translate(280.01 -65.41) rotate(53.25)"/><rect class="cls-2" x="205.63" y="247.25" width="1" height="1.07" transform="translate(281.3 -65.64) rotate(53.25)"/><rect class="cls-2" x="203.67" y="246.88" width="1" height="1.07" transform="matrix(0.6, 0.8, -0.8, 0.6, 280.22, -64.22)"/><rect class="cls-2" x="204.55" y="248.05" width="1" height="1.07" transform="translate(281.52 -64.45) rotate(53.25)"/><rect class="cls-2" x="205.36" y="249.13" width="1" height="1.07" transform="matrix(0.6, 0.8, -0.8, 0.6, 282.71, -64.67)"/><rect class="cls-2" x="202.39" y="247.84" width="1" height="1.07" transform="translate(280.48 -62.8) rotate(53.25)"/><rect class="cls-2" x="203.26" y="249.01" width="1" height="1.07" transform="translate(281.77 -63.04) rotate(53.25)"/><rect class="cls-2" x="204.07" y="250.09" width="1" height="1.07" transform="translate(282.96 -63.25) rotate(53.25)"/><rect class="cls-2" x="204.97" y="251.3" width="1" height="1.07" transform="matrix(0.6, 0.8, -0.8, 0.6, 284.29, -63.49)"/><rect class="cls-2" x="202.12" y="249.86" width="1" height="1.07" transform="translate(281.99 -61.78) rotate(53.25)"/><rect class="cls-2" x="202.93" y="250.94" width="1" height="1.07" transform="translate(283.18 -61.99) rotate(53.25)"/><rect class="cls-2" x="203.83" y="252.15" width="1" height="1.07" transform="translate(284.51 -62.23) rotate(53.25)"/><rect class="cls-2" x="201.79" y="251.79" width="1" height="1.07" transform="translate(283.41 -60.74) rotate(53.25)"/><rect class="cls-2" x="202.7" y="253" width="1" height="1.07" transform="translate(284.74 -60.98) rotate(53.25)"/><rect class="cls-2" x="201.38" y="253.99" width="1" height="1.07" transform="translate(285 -59.53) rotate(53.25)"/><rect class="cls-2" x="204.35" y="242.93" width="1.02" height="1.07" transform="translate(132.38 553.27) rotate(-126.75)"/><rect class="cls-2" x="203.07" y="243.88" width="1.02" height="1.07" transform="translate(129.57 553.78) rotate(-126.75)"/><rect class="cls-2" x="202.17" y="242.69" width="1.02" height="1.07" transform="translate(129.1 551.15) rotate(-126.75)"/><rect class="cls-2" x="201.99" y="244.69" width="1.02" height="1.07" transform="translate(127.2 554.2) rotate(-126.75)"/><rect class="cls-2" x="201.09" y="243.49" width="1.02" height="1.07" transform="translate(126.73 551.57) rotate(-126.75)"/><rect class="cls-2" x="200.27" y="242.39" width="1.02" height="1.07" transform="translate(126.29 549.15) rotate(-126.75)"/><rect class="cls-2" x="200.7" y="245.65" width="1.02" height="1.07" transform="translate(124.37 554.71) rotate(-126.75)"/><rect class="cls-2" x="199.81" y="244.45" width="1.02" height="1.07" transform="translate(123.9 552.08) rotate(-126.75)"/><rect class="cls-2" x="198.98" y="243.35" width="1.02" height="1.07" transform="translate(123.47 549.66) rotate(-126.75)"/><rect class="cls-2" x="198.06" y="242.12" width="1.02" height="1.07" transform="translate(122.98 546.95) rotate(-126.75)"/><rect class="cls-2" x="198.67" y="245.3" width="1.02" height="1.07" transform="translate(121.4 552.53) rotate(-126.75)"/><rect class="cls-2" x="197.85" y="244.2" width="1.02" height="1.07" transform="translate(120.97 550.1) rotate(-126.75)"/><rect class="cls-2" x="196.93" y="242.97" width="1.02" height="1.07" transform="translate(120.48 547.4) rotate(-126.75)"/><rect class="cls-2" x="196.71" y="245.05" width="1.02" height="1.07" transform="translate(118.47 550.55) rotate(-126.75)"/><rect class="cls-2" x="195.79" y="243.82" width="1.02" height="1.07" transform="translate(117.98 547.84) rotate(-126.75)"/><rect class="cls-2" x="194.47" y="244.8" width="1.02" height="1.07" transform="translate(115.09 548.36) rotate(-126.75)"/><rect class="cls-2" x="199.77" y="211.92" width="1" height="1.07" transform="translate(250.65 -75.14) rotate(53.25)"/><rect class="cls-2" x="198.49" y="212.87" width="1" height="1.07" transform="translate(250.9 -73.73) rotate(53.25)"/><rect class="cls-2" x="199.37" y="214.05" width="1" height="1.07" transform="translate(252.19 -73.96) rotate(53.25)"/><rect class="cls-2" x="197.41" y="213.68" width="1" height="1.07" transform="translate(251.11 -72.54) rotate(53.25)"/><rect class="cls-2" x="198.29" y="214.85" width="1" height="1.07" transform="translate(252.4 -72.77) rotate(53.25)"/><rect class="cls-2" x="199.1" y="215.93" width="1" height="1.07" transform="translate(253.59 -72.98) rotate(53.25)"/><rect class="cls-2" x="196.13" y="214.64" width="1" height="1.07" transform="translate(251.36 -71.12) rotate(53.25)"/><rect class="cls-2" x="197" y="215.81" width="1" height="1.07" transform="translate(252.66 -71.35) rotate(53.25)"/><rect class="cls-2" x="197.81" y="216.89" width="1" height="1.07" transform="translate(253.85 -71.57) rotate(53.25)"/><rect class="cls-2" x="198.71" y="218.1" width="1" height="1.07" transform="translate(255.18 -71.8) rotate(53.25)"/><rect class="cls-2" x="195.87" y="216.66" width="1" height="1.07" transform="translate(252.88 -70.1) rotate(53.25)"/><rect class="cls-2" x="196.67" y="217.74" width="1" height="1.07" transform="translate(254.07 -70.31) rotate(53.25)"/><rect class="cls-2" x="197.58" y="218.95" width="1" height="1.07" transform="translate(255.4 -70.55) rotate(53.25)"/><rect class="cls-2" x="195.54" y="218.59" width="1" height="1.07" transform="translate(254.3 -69.06) rotate(53.25)"/><rect class="cls-2" x="196.44" y="219.8" width="1" height="1.07" transform="translate(255.63 -69.3) rotate(53.25)"/><rect class="cls-2" x="195.12" y="220.79" width="1" height="1.07" transform="translate(255.88 -67.85) rotate(53.25)"/><rect class="cls-2" x="206.5" y="220.98" width="1.01" height="1.07" transform="translate(153.39 519.92) rotate(-126.75)"/><rect class="cls-2" x="205.22" y="221.94" width="1.01" height="1.07" transform="translate(150.58 520.42) rotate(-126.75)"/><rect class="cls-2" x="204.33" y="220.75" width="1.01" height="1.07" transform="translate(150.11 517.82) rotate(-126.75)"/><rect class="cls-2" x="204.14" y="222.74" width="1.01" height="1.07" transform="translate(148.21 520.85) rotate(-126.75)"/><rect class="cls-2" x="203.26" y="221.56" width="1.01" height="1.07" transform="translate(147.75 518.24) rotate(-126.75)"/><rect class="cls-2" x="202.44" y="220.47" width="1.01" height="1.07" transform="translate(147.32 515.85) rotate(-126.75)"/><rect class="cls-2" x="202.85" y="223.71" width="1.01" height="1.07" transform="translate(145.38 521.35) rotate(-126.75)"/><rect class="cls-2" x="201.97" y="222.52" width="1.01" height="1.07" transform="translate(144.92 518.75) rotate(-126.75)"/><rect class="cls-2" x="201.15" y="221.43" width="1.01" height="1.07" transform="translate(144.49 516.35) rotate(-126.75)"/><rect class="cls-2" x="200.24" y="220.21" width="1.01" height="1.07" transform="translate(144.01 513.67) rotate(-126.75)"/><rect class="cls-2" x="200.83" y="223.37" width="1.01" height="1.07" transform="translate(142.42 519.2) rotate(-126.75)"/><rect class="cls-2" x="200.01" y="222.28" width="1.01" height="1.07" transform="translate(141.99 516.8) rotate(-126.75)"/><rect class="cls-2" x="199.1" y="221.06" width="1.01" height="1.07" transform="translate(141.51 514.12) rotate(-126.75)"/><rect class="cls-2" x="198.88" y="223.13" width="1.01" height="1.07" transform="translate(139.49 517.24) rotate(-126.75)"/><rect class="cls-2" x="197.97" y="221.91" width="1.01" height="1.07" transform="translate(139.01 514.56) rotate(-126.75)"/><rect class="cls-2" x="196.65" y="222.89" width="1.01" height="1.07" transform="translate(136.12 515.08) rotate(-126.75)"/><rect class="cls-2" x="196.32" y="225.05" width="1.07" height="1" transform="translate(-95.83 162.63) rotate(-36.75)"/><rect class="cls-2" x="197.22" y="226.25" width="1.07" height="1" transform="translate(-96.37 163.41) rotate(-36.75)"/><rect class="cls-2" x="198.47" y="225.31" width="1.07" height="1" transform="translate(-95.56 163.97) rotate(-36.75)"/><rect class="cls-2" x="197.97" y="227.26" width="1.07" height="1" transform="translate(-96.83 164.06) rotate(-36.75)"/><rect class="cls-2" x="199.22" y="226.32" width="1.07" height="1" transform="translate(-96.02 164.62) rotate(-36.75)"/><rect class="cls-2" x="200.37" y="225.46" width="1.07" height="1" transform="translate(-95.27 165.14) rotate(-36.75)"/><rect class="cls-2" x="198.87" y="228.47" width="1.07" height="1" transform="translate(-97.37 164.84) rotate(-36.75)"/><rect class="cls-2" x="200.12" y="227.53" width="1.07" height="1" transform="translate(-96.56 165.4) rotate(-36.75)"/><rect class="cls-2" x="201.28" y="226.67" width="1.07" height="1" transform="translate(-95.82 165.92) rotate(-36.75)"/><rect class="cls-2" x="202.56" y="225.71" width="1.07" height="1" transform="translate(-94.99 166.5) rotate(-36.75)"/><rect class="cls-2" x="200.92" y="228.6" width="1.07" height="1" transform="translate(-97.04 166.09) rotate(-36.75)"/><rect class="cls-2" x="202.07" y="227.74" width="1.07" height="1" transform="translate(-96.3 166.61) rotate(-36.75)"/><rect class="cls-2" x="203.36" y="226.78" width="1.07" height="1" transform="translate(-95.47 167.19) rotate(-36.75)"/><rect class="cls-2" x="202.87" y="228.81" width="1.07" height="1" transform="translate(-96.78 167.3) rotate(-36.75)"/><rect class="cls-2" x="204.16" y="227.85" width="1.07" height="1" transform="translate(-95.95 167.88) rotate(-36.75)"/><rect class="cls-2" x="205.08" y="229.08" width="1.07" height="1" transform="translate(-96.5 168.68) rotate(-36.75)"/><rect class="cls-2" x="182.15" y="218.23" width="1.07" height="1" transform="translate(-94.57 152.8) rotate(-36.75)"/><rect class="cls-2" x="183.05" y="219.43" width="1.07" height="1" transform="translate(-95.11 153.57) rotate(-36.75)"/><rect class="cls-2" x="184.3" y="218.5" width="1.07" height="1" transform="translate(-94.3 154.14) rotate(-36.75)"/><rect class="cls-2" x="183.8" y="220.44" width="1.07" height="1" transform="translate(-95.56 154.23) rotate(-36.75)"/><rect class="cls-2" x="185.05" y="219.51" width="1.07" height="1" transform="translate(-94.76 154.79) rotate(-36.75)"/><rect class="cls-2" x="186.21" y="218.65" width="1.07" height="1" transform="translate(-94.01 155.31) rotate(-36.75)"/><rect class="cls-2" x="184.71" y="221.65" width="1.07" height="1" transform="translate(-96.11 155.01) rotate(-36.75)"/><rect class="cls-2" x="185.96" y="220.72" width="1.07" height="1" transform="translate(-95.3 155.57) rotate(-36.75)"/><rect class="cls-2" x="187.11" y="219.86" width="1.07" height="1" transform="translate(-94.56 156.09) rotate(-36.75)"/><rect class="cls-2" x="188.4" y="218.89" width="1.07" height="1" transform="translate(-93.73 156.67) rotate(-36.75)"/><rect class="cls-2" x="186.75" y="221.79" width="1.07" height="1" transform="translate(-95.78 156.26) rotate(-36.75)"/><rect class="cls-2" x="187.91" y="220.92" width="1.07" height="1" transform="translate(-95.04 156.78) rotate(-36.75)"/><rect class="cls-2" x="189.19" y="219.96" width="1.07" height="1" transform="translate(-94.21 157.36) rotate(-36.75)"/><rect class="cls-2" x="188.7" y="221.99" width="1.07" height="1" transform="translate(-95.52 157.47) rotate(-36.75)"/><rect class="cls-2" x="189.99" y="221.03" width="1.07" height="1" transform="translate(-94.69 158.05) rotate(-36.75)"/><rect class="cls-2" x="190.91" y="222.27" width="1.07" height="1" transform="translate(-95.24 158.84) rotate(-36.75)"/><rect class="cls-2" x="193.04" y="220.44" width="1.07" height="0.98" transform="translate(-93.72 159.76) rotate(-36.75)"/><rect class="cls-2" x="192.16" y="219.27" width="1.07" height="0.98" transform="translate(-93.19 158.99) rotate(-36.75)"/><rect class="cls-2" x="193.42" y="218.33" width="1.07" height="0.98" transform="matrix(0.8, -0.6, 0.6, 0.8, -92.38, 159.56)"/><rect class="cls-2" x="191.42" y="218.27" width="1.07" height="0.98" transform="translate(-92.75 158.35) rotate(-36.75)"/><rect class="cls-2" x="192.68" y="217.33" width="1.07" height="0.98" transform="translate(-91.93 158.92) rotate(-36.75)"/><rect class="cls-2" x="193.84" y="216.47" width="1.07" height="0.98" transform="translate(-91.19 159.44) rotate(-36.75)"/><rect class="cls-2" x="190.53" y="217.09" width="1.07" height="0.98" transform="translate(-92.21 157.59) rotate(-36.75)"/><rect class="cls-2" x="191.79" y="216.15" width="1.07" height="0.98" transform="translate(-91.4 158.15) rotate(-36.75)"/><rect class="cls-2" x="192.95" y="215.28" width="1.07" height="0.98" transform="translate(-90.65 158.67) rotate(-36.75)"/><rect class="cls-2" x="194.24" y="214.31" width="1.07" height="0.98" transform="translate(-89.82 159.26) rotate(-36.75)"/><rect class="cls-2" x="191.01" y="215.1" width="1.07" height="0.98" transform="translate(-90.93 157.48) rotate(-36.75)"/><rect class="cls-2" x="192.17" y="214.23" width="1.07" height="0.98" transform="translate(-90.18 158) rotate(-36.75)"/><rect class="cls-2" x="193.46" y="213.27" width="1.07" height="0.98" transform="translate(-89.34 158.58) rotate(-36.75)"/><rect class="cls-2" x="191.38" y="213.18" width="1.07" height="0.98" transform="translate(-89.71 157.32) rotate(-36.75)"/><rect class="cls-2" x="192.68" y="212.22" width="1.07" height="0.98" transform="translate(-88.87 157.9) rotate(-36.75)"/><rect class="cls-2" x="191.77" y="211" width="1.07" height="0.98" transform="translate(-88.33 157.12) rotate(-36.75)"/><rect class="cls-2" x="195.6" y="236.3" width="1.07" height="1.02" transform="translate(-102.72 164.44) rotate(-36.75)"/><rect class="cls-2" x="194.68" y="235.08" width="1.07" height="1.02" transform="translate(-102.17 163.65) rotate(-36.75)"/><rect class="cls-2" x="195.93" y="234.14" width="1.07" height="1.02" transform="translate(-101.36 164.21) rotate(-36.75)"/><rect class="cls-2" x="193.91" y="234.04" width="1.07" height="1.02" transform="translate(-101.7 162.98) rotate(-36.75)"/><rect class="cls-2" x="195.16" y="233.11" width="1.07" height="1.02" transform="translate(-100.89 163.54) rotate(-36.75)"/><rect class="cls-2" x="196.31" y="232.25" width="1.07" height="1.02" transform="translate(-100.15 164.06) rotate(-36.75)"/><rect class="cls-2" x="192.99" y="232.81" width="1.07" height="1.02" transform="translate(-101.15 162.18) rotate(-36.75)"/><rect class="cls-2" x="194.24" y="231.88" width="1.07" height="1.02" transform="translate(-100.34 162.75) rotate(-36.75)"/><rect class="cls-2" x="195.39" y="231.02" width="1.07" height="1.02" transform="translate(-99.59 163.27) rotate(-36.75)"/><rect class="cls-2" x="196.68" y="230.05" width="1.07" height="1.02" transform="translate(-98.76 163.85) rotate(-36.75)"/><rect class="cls-2" x="193.43" y="230.79" width="1.07" height="1.02" transform="translate(-99.85 162.04) rotate(-36.75)"/><rect class="cls-2" x="194.58" y="229.93" width="1.07" height="1.02" transform="translate(-99.1 162.56) rotate(-36.75)"/><rect class="cls-2" x="195.87" y="228.96" width="1.07" height="1.02" transform="translate(-98.27 163.14) rotate(-36.75)"/><rect class="cls-2" x="193.76" y="228.84" width="1.07" height="1.02" transform="translate(-98.61 161.86) rotate(-36.75)"/><rect class="cls-2" x="195.05" y="227.87" width="1.07" height="1.02" transform="translate(-97.78 162.44) rotate(-36.75)"/><rect class="cls-2" x="194.11" y="226.61" width="1.07" height="1.02" transform="translate(-97.21 161.62) rotate(-36.75)"/><rect class="cls-2" x="192.02" y="226.35" width="1" height="1.07" transform="matrix(0.6, 0.8, -0.8, 0.6, 259.1, -63.13)"/><rect class="cls-2" x="190.74" y="227.31" width="1" height="1.07" transform="translate(259.35 -61.72) rotate(53.25)"/><rect class="cls-2" x="191.61" y="228.48" width="1" height="1.07" transform="translate(260.64 -61.95) rotate(53.25)"/><rect class="cls-2" x="189.66" y="228.11" width="1" height="1.07" transform="matrix(0.6, 0.8, -0.8, 0.6, 259.56, -60.53)"/><rect class="cls-2" x="190.53" y="229.29" width="1" height="1.07" transform="translate(260.85 -60.76) rotate(53.25)"/><rect class="cls-2" x="191.34" y="230.37" width="1" height="1.07" transform="matrix(0.6, 0.8, -0.8, 0.6, 262.04, -60.97)"/><rect class="cls-2" x="188.37" y="229.07" width="1" height="1.07" transform="translate(259.81 -59.11) rotate(53.25)"/><rect class="cls-2" x="189.25" y="230.25" width="1" height="1.07" transform="translate(261.11 -59.34) rotate(53.25)"/><rect class="cls-2" x="190.05" y="231.33" width="1" height="1.07" transform="translate(262.3 -59.56) rotate(53.25)"/><rect class="cls-2" x="190.96" y="232.54" width="1" height="1.07" transform="translate(263.63 -59.79) rotate(53.25)"/><rect class="cls-2" x="188.11" y="231.1" width="1" height="1.07" transform="translate(261.33 -58.09) rotate(53.25)"/><rect class="cls-2" x="188.92" y="232.18" width="1" height="1.07" transform="translate(262.52 -58.3) rotate(53.25)"/><rect class="cls-2" x="189.82" y="233.39" width="1" height="1.07" transform="translate(263.85 -58.54) rotate(53.25)"/><rect class="cls-2" x="187.78" y="233.03" width="1" height="1.07" transform="translate(262.74 -57.05) rotate(53.25)"/><rect class="cls-2" x="188.68" y="234.24" width="1" height="1.07" transform="translate(264.08 -57.29) rotate(53.25)"/><rect class="cls-2" x="187.36" y="235.22" width="1" height="1.07" transform="translate(264.33 -55.84) rotate(53.25)"/><rect class="cls-2" x="190.33" y="224.16" width="1.02" height="1.07" transform="translate(125.01 512.05) rotate(-126.75)"/><rect class="cls-2" x="189.05" y="225.12" width="1.02" height="1.07" transform="translate(122.2 512.55) rotate(-126.75)"/><rect class="cls-2" x="188.16" y="223.92" width="1.02" height="1.07" transform="translate(121.73 509.93) rotate(-126.75)"/><rect class="cls-2" x="187.97" y="225.92" width="1.02" height="1.07" transform="translate(119.83 512.98) rotate(-126.75)"/><rect class="cls-2" x="187.08" y="224.73" width="1.02" height="1.07" transform="translate(119.36 510.35) rotate(-126.75)"/><rect class="cls-2" x="186.26" y="223.62" width="1.02" height="1.07" transform="translate(118.93 507.93) rotate(-126.75)"/><rect class="cls-2" x="186.69" y="226.88" width="1.02" height="1.07" transform="translate(117 513.48) rotate(-126.75)"/><rect class="cls-2" x="185.79" y="225.69" width="1.02" height="1.07" transform="translate(116.53 510.86) rotate(-126.75)"/><rect class="cls-2" x="184.97" y="224.59" width="1.02" height="1.07" transform="translate(116.1 508.43) rotate(-126.75)"/><rect class="cls-2" x="184.05" y="223.35" width="1.02" height="1.07" transform="translate(115.62 505.73) rotate(-126.75)"/><rect class="cls-2" x="184.65" y="226.54" width="1.02" height="1.07" transform="translate(114.03 511.3) rotate(-126.75)"/><rect class="cls-2" x="183.83" y="225.44" width="1.02" height="1.07" transform="translate(113.6 508.88) rotate(-126.75)"/><rect class="cls-2" x="182.91" y="224.2" width="1.02" height="1.07" transform="translate(113.12 506.17) rotate(-126.75)"/><rect class="cls-2" x="182.69" y="226.29" width="1.02" height="1.07" transform="translate(111.1 509.33) rotate(-126.75)"/><rect class="cls-2" x="181.77" y="225.05" width="1.02" height="1.07" transform="translate(110.62 506.62) rotate(-126.75)"/><rect class="cls-2" x="180.46" y="226.04" width="1.02" height="1.07" transform="translate(107.72 507.14) rotate(-126.75)"/><path class="cls-3" d="M245.31,318c-11.92-17.39-25.16-35.45-39.87-53.91Q190.17,244.94,175.13,228l3.45-5.57A197.7,197.7,0,0,0,191.9,242.1c7.42,9.63,52.38,66.14,56,72.09.32.54,1.07,1.86.59,2.81A2.41,2.41,0,0,1,245.31,318Z"/><path class="cls-3" d="M266.18,300.51c-9.81-14.43-20.46-29.31-32-44.51-12.38-16.31-24.7-31.55-36.78-45.72l4.87-3.64L267.49,294a13.79,13.79,0,0,1-.11,2.65A13.43,13.43,0,0,1,266.18,300.51Z"/><path class="cls-3" d="M175.66,227.85q6.1-6.57,12.23-13.13,6.33-6.81,12.68-13.61l-5.24-6.26a46.88,46.88,0,0,1-20.94,26.69C174.81,223.64,175.23,225.75,175.66,227.85Z"/><path class="cls-3" d="M250.61,324.3a60,60,0,0,1,18.94-27.67l-4.75-4.77a43.41,43.41,0,0,1-16.93,22.33c-4,17.08-4.15,20.89-3.48,21.11S248.15,331.81,250.61,324.3Z"/><path class="cls-3" d="M119.21,22.85a65.42,65.42,0,0,1-6.35,2.63c-2.41.9-5.24,1.95-5.4,1.63-.31-.62,9.13-6,10-6.47C125.8,16,138.54,8.85,156,4.3a143.07,143.07,0,0,1,61.28-1.87c9.18,1.7,25.79,4.94,43.74,16a114.78,114.78,0,0,1,26.56,22.81,49.64,49.64,0,0,1,8.68,12.42,65.19,65.19,0,0,1,4.42,14.13A39.5,39.5,0,0,1,302,76.3c.09,2.94-.29,3.73-.34,9.19,0,3.79.14,5.3.68,7a18.21,18.21,0,0,0,2.39,4.6,34.68,34.68,0,0,0,7.32,7.83c3.8,2.93,5.24,2.79,10.21,6.63.84.65,2.08,1.09,2.89,2.39,1.58,2.52.65,5.75.34,6.8a14.44,14.44,0,0,1-2.38,4.6,40.94,40.94,0,0,0-2.89,3.75,7.62,7.62,0,0,0-1.36,3.57,3.92,3.92,0,0,0,.51,2.72c.89,1.23,2.1.61,3.57,1.88a5.34,5.34,0,0,1,1.7,3.23,5.82,5.82,0,0,1-.51,3.23c-.55,1.21-1.08,1.28-1.19,2.05-.17,1.17.94,1.76,1.87,3.23a8.68,8.68,0,0,1,.85,7.49c-.39.93-.83,1.24-1.87,3.4-.28.59-.26.59-.85,1.88-1.05,2.27-1.15,2.34-1.19,2.72-.15,1.33.9,2.1,1.87,3.57a12.35,12.35,0,0,1,1.87,6.13,12.58,12.58,0,0,1-2.38,7.83c-2.13,3-4.95,4.18-8,5.45-2,.83-2.28.69-10,2.72-.53.14-3.26.86-6.3,1.7-6.07,1.7-9.11,2.54-11.06,3.41a28.35,28.35,0,0,0-9,5.79,29.26,29.26,0,0,0-4.94,6.8c-3.05,5.4-4.29,9.86-6.64,18.56a90.32,90.32,0,0,0-2.72,11.91,86.49,86.49,0,0,0-.68,12.94c-.06,8.53-.09,12.79.68,18.38.72,5.26,1.41,6.53,3.06,16.51,1.49,9,1.18,9.51.85,9.7-3.11,1.87-19.28-18.34-30-33.87-4.7-6.84-16.84-26-21-32.39l-.95-1.48c-4.41-6.8-5.68-8.64-5.62-8.68s8.34,11.83,16.85,21.79c.69.8,2.86,3.32,7.15,8.34,3.51,4.1,4,4.7,5.11,5.95,6.55,7.51,9.82,11.27,11.06,10.9,2.57-.77.44-8.93,2.38-24.17a145.2,145.2,0,0,1,3.41-17.88c2.05-7.51,3.89-11.2,3.74-17.87-.09-4.34-.16-7.44-2.21-10.38-3-4.29-6.68-3.2-16.34-8.17-2-1-5.15-3.15-11.49-7.41-9.91-6.65-11.06-8.06-11-9.7.15-3.07,4.65-6.24,7.92-5.61,1.42.27,2.19,1.18,3.83,2.8,2.48,2.47,5.39,4.47,7.91,6.9,5.29,5.08,15.15,7.8,20.17,9.19,5.91,1.63,5.44.77,32.94,2.55,8.32.54,13.67,1,19.66-2,1.61-.81,8.14-4.08,8.42-8.94.13-2.15-1.28-4.58-4.08-9.44-2.31-4-3.75-5.6-3.07-6.9.81-1.53,3.43-.44,5.88-2.55,1.53-1.32,2.76-3.68,2-5.11-.92-1.81-4.8-1.65-7.15-1-2,.53-2.14,1.2-4.85,2.3-2.4,1-5.82,1.89-6.13,1.28s2.88-2.9,7.15-5.88c6.72-4.68,10.63-6.76,10.21-8.42-.27-1.1-2.14-.75-3.57-2.81-1.22-1.74-.49-2.85-1.53-3.83-1.83-1.71-5.17.63-6.39-.77-1-1.15,0-4.24,1.79-6.12s3.33-1.25,6.13-3.32c.67-.5,4.09-3,3.83-5.62-.24-2.34-3.39-3.73-5.11-4.59,0,0-10.4-5.27-17.36-18.64-3.25-6.25-.2-6.14-3.83-18.13a80.82,80.82,0,0,0-9.19-19.66c-1.94-3-8.41-13.13-11.24-12-1.29.52-.86,3-1.27,9.19-.35,5.18-1.34,10.26-3.32,20.43-.95,4.83-1.68,8.64-3.07,13.78-.34,1.3-1.83,6.75-3.83,12.26A136,136,0,0,1,247,129.49c-3,4.39-7.7,9.82-17.11,20.68-14.82,17.11-17.9,19.2-21.19,18.64-5.15-.87-9.58-8-8.68-13.53.82-5.08,5.83-7.12,11.49-11.24,11.11-8.08,16.37-18.11,23.74-32.17a127.78,127.78,0,0,0,11-29.61c4-16.25,1.78-19.74,6.89-34.47,3.35-9.65,7.29-16.72,5.62-17.87-1.29-.9-5.22,2.24-7.66,5.1C246.93,39.93,246,45.29,245,51.11c0,0-1.45,8.14-4.08,21.44a137.42,137.42,0,0,1-8.68,28.09A121.45,121.45,0,0,1,219,123.36c-9,12.13-10.08,8.9-21.19,23-5.11,6.48-7.31,10.24-10.72,10-4.54-.37-9.06-7.69-7.41-12,.88-2.31,3.36-3.27,4.6-3.83,5.49-2.46,10-9.3,18.89-23a216.45,216.45,0,0,0,15.06-27.32,176.93,176.93,0,0,0,10.22-25c3.45-11,2.14-11.16,4.85-17.62,6.1-14.56,16-21.61,14.3-23.74-.27-.34-1.2-1-8.43,1.79a93.27,93.27,0,0,0-19.4,10.21c-7.63,5.31-13.16,9.17-19.66,15.83a110.56,110.56,0,0,0-21.19,31.66A116.09,116.09,0,0,0,171,108.55c-1.65,8-3,14.61-2.3,23.24.31,3.82.63,3.2,5.36,22,3.84,15.18,4.77,20.07,5.37,25.78.3,2.86.45,6,.76,12.26.57,11.39.85,17.08.51,20.68-1.06,11.33-6,19.55-8.93,24.51a74.25,74.25,0,0,1-19.92,21.45c-7.46,5.41-13.74,7.87-23,11.49-12,4.7-14.63,4.19-31.91,9.7-14.26,4.54-21.38,6.81-28.6,11-8.16,4.71-17.86,10.48-24,22.21a40.57,40.57,0,0,0-5.1,20.43c.57,16.26,12.19,26.08,10.46,27.57-1.53,1.33-11.94-5.49-18.63-16.34a50.67,50.67,0,0,1-7.15-26.3c0-4,.26-18,10-30.38,7.21-9.18,15.87-12.66,27.58-17.36,10.26-4.13,13.31-3.7,39.57-10,24.87-5.93,29-8,32.43-10A65,65,0,0,0,156.14,228c2.66-4.54,10-17.51,8.17-34.46-.57-5.29-1.8-16.58-10.21-24.26-4.27-3.9-7.61-4.33-16.85-7.91a208.68,208.68,0,0,1-27.83-13.54c-14.08-8.47-22.23-17.93-29.87-26.8C71.36,111.56,63.28,102,66.27,96c1.16-2.31,4-4.11,6.13-3.57,3.51.89,2.46,7.65,6.38,15.83,2.37,5,6.43,8.66,14.55,16.08a141.1,141.1,0,0,0,15.83,12.77c14.47,10,44.49,27,50.3,20.43,1.9-2.16.2-5.72-1.28-11.24-5.92-22.13.75-42.24,5.11-55.4,2.34-7,8-23.5,22.21-38.81,20.1-21.61,45.66-28.38,43.92-34-.53-1.7-3.28-2.2-7.15-2.81C202.78,12.28,193,10.75,183.21,11,146.92,12.05,122.6,21.24,119.21,22.85Z"/><path class="cls-3" d="M133.5,166.34c1.17.23,6.28,1.3,6.47,3.41.12,1.3-1.69,2.41-3.74,3.74-9.31,6-5,4.38-11.24,7.83-8.59,4.75-14.5,8-23.49,10.21a75.86,75.86,0,0,1-20.76,2.05c-5.82-.15-12.26-.31-20.09-3.07-9.31-3.27-17.52-8.72-17-9.87.07-.17.47-.59,8.51,1.36,8.92,2.16,13.36,3.87,16.68,4.77,8,2.17,14.65,1,23.83-.68a86.8,86.8,0,0,0,25.53-9.19A89.44,89.44,0,0,0,133.5,166.34Z"/><path class="cls-3" d="M189.08,164.72c1.07-1,4.24-2,6.2-4.59a1.09,1.09,0,0,1,.69-.51c1.31-.12,2.63,4.15,3.83,7.91,2,6.41,4.36,12.74,6.38,19.15,2.25,7.11,2.22,6.59,2.81,8.68,1.24,4.36,2.75,11.37,2.3,27.83-.33,12-.52,19.2-2.55,29.11-3.08,15-8.28,26-12,33.7-6,12.34-8.13,13.18-15.32,28.09,0,0-5.5,10.53-7.31,15.83l-.37,1.11h0c0,.12-.07.23-.1.34l-.06.2-.31,1c-.21.65-1,3.53-1,3.76-.27,1.07-4.41,23,9.44,43.4,10.7,15.75,26.07,21.61,33.71,24.51,16.77,6.39,30.65,5.22,30.63,6.9s-12.65,3.92-26.29,3.06C196.92,412.73,180.28,403,173,398.6c-5.87-3.54-8.81-5.31-12-8.68-10.86-11.53-11.74-26.78-12.25-35.49a80.2,80.2,0,0,1,3.06-26.56c2.48-8.61,5.69-14.28,12-25.27,19.65-34.19,19.59-34.05,19.66-34.22,11-23.85,11.95-45.92,12.26-55.4.47-14.35.7-21.52-1.79-28.34C191.57,178.19,186,167.59,189.08,164.72Z"/></g></g></svg>